<?xml version="1.0" encoding="utf-8"?>
<!-- Generator: Adobe Illustrator 23.0.1, SVG Export Plug-In . SVG Version: 6.00 Build 0)  -->
<svg version="1.1" id="brand" xmlns="http://www.w3.org/2000/svg" xmlns:xlink="http://www.w3.org/1999/xlink" x="0px" y="0px"
	 viewBox="0 0 1024 512" style="enable-background:new 0 0 1024 512;" xml:space="preserve">
<style type="text/css">
	.st0{fill:#FFFFFF;}
	.st1{fill:#F6D365;}
</style>
<g>
	<polygon class="st0" points="360,396 324,396.2 324,171 360,171 	"/>
	<rect x="837" y="360" class="st0" width="117" height="36"/>
	<rect x="450" y="360" class="st1" width="54" height="36"/>
	<rect x="522" y="171" class="st0" width="36" height="225"/>
	<rect x="594" y="171" class="st0" width="36" height="225"/>
	<rect x="648" y="172" class="st1" width="45" height="36"/>
	<rect x="648" y="360" class="st1" width="45" height="36"/>
</g>
<polygon class="st0" points="238.1,396 60.9,396 10,345.1 288.3,345.1 "/>
<polygon class="st0" points="86,294.8 10,294.8 187.2,85 263.2,85 "/>
<polygon class="st1" points="187.2,85 288.3,345.1 238.1,396 145.7,134 "/>
<rect x="711" y="171" class="st0" width="36" height="225"/>
<rect x="783" y="171" class="st0" width="36" height="225"/>
<rect x="972" y="171" class="st0" width="36" height="225"/>
<rect x="873" y="306" class="st1" width="45" height="36"/>
<rect x="378" y="171" class="st0" width="117" height="36"/>
<rect x="378" y="252" class="st1" width="54" height="36"/>
<rect x="216" y="85" class="st0" width="792" height="36"/>
</svg>
