<svg version="1.1" id="brand" xmlns="http://www.w3.org/2000/svg" x="0" y="0" viewBox="0 0 1024 512" xml:space="preserve"><style>.st0{fill:#fff}.st1{fill:#f6d365}</style><path class="st0" d="M238.1 396H60.9L10 345.1h278.3zM86 294.8H10L187.2 85h76z"/><path class="st1" d="M187.2 85l101.1 260.1-50.2 50.9-92.4-262z"/><path class="st0" d="M373 234.5v149h-30v-149h-19v163.6h70V234.5z"/><path class="st1" d="M479 326.9h55v14.7h-55z"/><path class="st0" d="M598 235h21v163.1h-21z"/><path class="st1" d="M598 192.8h21v21.3h-21z"/><path class="st0" d="M703 192.8v187h-30v-187h-19v205.3h70V192.8z"/><path class="st1" d="M479 247.6h55v14.7h-55z"/><path class="st0" d="M449 192h21v206.1h-21zM544 192h21v206.1h-21z"/><path class="st1" d="M287 192h144v14.7H287z"/><path class="st0" d="M925.8 192l-50.5 115.7-51.1-115.4-89.8 206h30.7L824.4 262l20 43.8-28.1 62.8h41.4l18.2-41.4 18.2 41.4h43.1l-29.7-65.2 19.7-43.9 61.2 138.2 28.4-.1z"/><path class="st1" d="M816 383.3h120V398H816z"/><path class="st0" d="M297.5 88l-2.2 3.9s-66.5-20.4-109.5-26.2c0 0 72.8 6.7 111.7 22.3zM304 86.6l-1.7 2.2S263.4 71 237.6 64c0-.1 43.9 10 66.4 22.6zM310 86.2l-.8.9s-16.6-9.4-27.8-13.5c-.1 0 19.1 6.2 28.6 12.6z"/><path class="st0" d="M274.1 85.5L229.3 144h53.8c3.1-2.6 4.8-4.6 4.8-4.6 63.5-42.5 85.1-31.2 85.1-31.2-4.2-28.7-98.9-22.7-98.9-22.7zM332 103s-7 1-20-13l17.1 3.4L342 96s1 6-10 7z"/></svg>