<?xml version="1.0" encoding="utf-8"?>
<!-- Generator: Adobe Illustrator 23.0.1, SVG Export Plug-In . SVG Version: 6.00 Build 0)  -->
<svg version="1.1" id="brand" xmlns="http://www.w3.org/2000/svg" xmlns:xlink="http://www.w3.org/1999/xlink" x="0px" y="0px"
	 viewBox="0 0 1024 512" style="enable-background:new 0 0 1024 512;" xml:space="preserve">
<style type="text/css">
	.st0{fill:#ffffff;}
	.st1{fill:#F6D365;}
</style>
<polygon class="st0" points="238.1,396 60.9,396 10,345.1 288.3,345.1 "/>
<polygon class="st0" points="86,294.8 10,294.8 187.2,85 263.2,85 "/>
<polygon class="st1" points="187.2,85 288.3,345.1 238.1,396 145.7,134 "/>
<polygon class="st0" points="373,234.5 373,383.5 343,383.5 343,234.5 324,234.5 324,398.1 394,398.1 394,234.5 "/>
<rect x="479" y="326.9" class="st1" width="55" height="14.7"/>
<rect x="598" y="235" class="st0" width="21" height="163.1"/>
<rect x="598" y="192.8" class="st1" width="21" height="21.3"/>
<polygon class="st0" points="703,192.8 703,379.8 673,379.8 673,192.8 654,192.8 654,398.1 724,398.1 724,192.8 "/>
<rect x="479" y="247.6" class="st1" width="55" height="14.7"/>
<rect x="449" y="192" class="st0" width="21" height="206.1"/>
<rect x="544" y="192" class="st0" width="21" height="206.1"/>
<rect x="287" y="192" class="st1" width="144" height="14.7"/>
<polygon class="st0" points="925.8,192 875.3,307.7 824.2,192.3 734.4,398.3 765.1,398.3 824.4,262 844.4,305.8 816.3,368.6 
	857.7,368.6 875.9,327.2 894.1,368.6 937.2,368.6 907.5,303.4 927.2,259.5 988.4,397.7 1016.8,397.6 "/>
<rect x="816" y="383.3" class="st1" width="120" height="14.7"/>
<path class="st0" d="M297.5,88l-2.2,3.9c0,0-66.5-20.4-109.5-26.2C185.8,65.7,258.6,72.4,297.5,88z"/>
<path class="st0" d="M304,86.6l-1.7,2.2c0,0-38.9-17.8-64.7-24.8C237.6,63.9,281.5,74,304,86.6z"/>
<path class="st0" d="M310,86.2l-0.8,0.9c0,0-16.6-9.4-27.8-13.5C281.3,73.6,300.5,79.8,310,86.2z"/>
<path class="st0" d="M274.1,85.5L229.3,144h53.8c3.1-2.6,4.8-4.6,4.8-4.6c63.5-42.5,85.1-31.2,85.1-31.2
	C368.8,79.5,274.1,85.5,274.1,85.5z M332,103c0,0-7,1-20-13l17.1,3.4L342,96C342,96,343,102,332,103z"/>
</svg>
