<?xml version="1.0" encoding="utf-8"?>
<!-- Generator: Adobe Illustrator 23.0.1, SVG Export Plug-In . SVG Version: 6.00 Build 0)  -->
<svg version="1.1" id="Layer_1" xmlns="http://www.w3.org/2000/svg" xmlns:xlink="http://www.w3.org/1999/xlink" x="0px" y="0px"
	 viewBox="0 0 1024 512" style="enable-background:new 0 0 1024 512;" xml:space="preserve">
<style type="text/css">
	.st0{fill:#ffffff;}
	.st1{fill:#F6D365;}
</style>
<polygon class="st0" points="247.6,396 63,396 10,343 300,343 "/>
<polygon class="st0" points="89.2,290.6 10,290.6 194.6,72 273.8,72 "/>
<polygon class="st1" points="194.6,72 300,343 247.6,396 151.4,123 "/>
<polygon class="st0" points="374,232.5 374,381.5 344,381.5 344,232.5 325,232.5 325,396.1 395,396.1 395,232.5 "/>
<rect x="480" y="324.9" class="st1" width="55" height="14.7"/>
<rect x="599" y="233" class="st0" width="21" height="163.1"/>
<rect x="599" y="190.8" class="st1" width="21" height="21.3"/>
<polygon class="st0" points="704,190.8 704,377.8 674,377.8 674,190.8 655,190.8 655,396.1 725,396.1 725,190.8 "/>
<rect x="480" y="245.6" class="st1" width="55" height="14.7"/>
<rect x="450" y="190" class="st0" width="21" height="206.1"/>
<rect x="545" y="190" class="st0" width="21" height="206.1"/>
<rect x="288" y="190" class="st1" width="144" height="14.7"/>
<polygon class="st0" points="926.8,190 876.3,305.7 825.2,190.3 735.4,396.3 766.1,396.3 825.4,260 845.4,303.8 817.3,366.6 
	858.7,366.6 876.9,325.2 895.1,366.6 938.2,366.6 908.5,301.4 928.2,257.5 989.4,395.7 1017.8,395.6 "/>
<rect x="817" y="381.3" class="st1" width="120" height="14.7"/>
</svg>
