<?xml version="1.0" encoding="utf-8"?>
<!-- Generator: Adobe Illustrator 23.0.1, SVG Export Plug-In . SVG Version: 6.00 Build 0)  -->
<svg version="1.1" id="Layer_1" xmlns="http://www.w3.org/2000/svg" xmlns:xlink="http://www.w3.org/1999/xlink" x="0px" y="0px"
	 viewBox="0 0 64 128" style="enable-background:new 0 0 64 128;" xml:space="preserve">
<style type="text/css">
	.st0{opacity:0.4;fill:#3A1F5D;}
	.st1{opacity:0.4;fill:#5CFFF3;}
	.st2{opacity:0.8;fill:#3A1F5D;}
	.st3{fill:#3A1F5D;}
</style>
<g>
	<g>
		<g>
			<rect x="11.8" y="2.3" class="st0" width="6.7" height="6.7"/>
			<rect x="11.8" y="13" class="st0" width="6.7" height="6.7"/>
			<rect x="11.8" y="23.7" class="st0" width="6.7" height="6.7"/>
			<rect x="11.8" y="34.3" class="st0" width="6.7" height="6.7"/>
			<rect x="11.8" y="45" class="st0" width="6.7" height="6.7"/>
			<rect x="22.3" y="2.3" class="st1" width="6.7" height="6.7"/>
			<rect x="22.3" y="13" class="st0" width="6.7" height="6.7"/>
			<rect x="22.3" y="23.7" class="st0" width="6.7" height="6.7"/>
			<rect x="22.3" y="34.3" class="st1" width="6.7" height="6.7"/>
			<rect x="22.3" y="45" class="st0" width="6.7" height="6.7"/>
			<rect x="32.7" y="2.3" class="st0" width="6.7" height="6.7"/>
			<rect x="32.7" y="13" class="st1" width="6.7" height="6.7"/>
			<rect x="32.7" y="23.7" class="st0" width="6.7" height="6.7"/>
			<rect x="32.7" y="34.3" class="st0" width="6.7" height="6.7"/>
			<rect x="32.7" y="45" class="st0" width="6.7" height="6.7"/>
		</g>
		<rect x="22.3" y="2.3" class="st2" width="6.7" height="6.7"/>
		<rect x="22.3" y="34.3" class="st2" width="6.7" height="6.7"/>
		<rect x="32.7" y="13" class="st2" width="6.7" height="6.7"/>
	</g>
	<path class="st3" d="M50.8,122.2H36.1c-0.3,0-0.6-0.3-0.6-0.6c0-0.3,0.3-0.6,0.6-0.6h14.1V38.3H36.1c-0.3,0-0.6-0.3-0.6-0.6
		c0-0.3,0.3-0.6,0.6-0.6h14.7c0.3,0,0.6,0.3,0.6,0.6v83.9C51.4,122,51.2,122.2,50.8,122.2z"/>
	<g>
		<rect x="11.8" y="96.9" class="st0" width="6.7" height="6.7"/>
		<rect x="11.8" y="107.6" class="st0" width="6.7" height="6.7"/>
		<rect x="11.8" y="118.3" class="st0" width="6.7" height="6.7"/>
		<rect x="22.3" y="96.9" class="st1" width="6.7" height="6.7"/>
		<rect x="22.3" y="107.6" class="st0" width="6.7" height="6.7"/>
		<rect x="22.3" y="118.3" class="st0" width="6.7" height="6.7"/>
		<rect x="32.7" y="96.9" class="st0" width="6.7" height="6.7"/>
		<rect x="32.7" y="107.6" class="st1" width="6.7" height="6.7"/>
		<rect x="32.7" y="118.3" class="st0" width="6.7" height="6.7"/>
		<rect x="22.3" y="96.9" class="st2" width="6.7" height="6.7"/>
		<rect x="32.7" y="107.6" class="st2" width="6.7" height="6.7"/>
	</g>
</g>
</svg>
