<?xml version="1.0" encoding="utf-8"?>
<!-- Generator: Adobe Illustrator 23.0.1, SVG Export Plug-In . SVG Version: 6.00 Build 0)  -->
<svg version="1.1" id="circles" xmlns="http://www.w3.org/2000/svg" xmlns:xlink="http://www.w3.org/1999/xlink" x="0px" y="0px"
	 viewBox="0 0 256 24" style="enable-background:new 0 0 256 24;" xml:space="preserve">
<style type="text/css">
	.st0{fill:#4DFEF8;}
	.st1{opacity:0.95;fill:#3A1F5D;}
	.st2{opacity:0.9;fill:#3A1F5D;}
	.st3{opacity:0.85;fill:#3A1F5D;}
	.st4{opacity:0.8;fill:#3A1F5D;}
	.st5{opacity:0.75;fill:#3A1F5D;}
	.st6{opacity:0.7;fill:#3A1F5D;}
	.st7{fill:#3A1F5D;}
</style>
<g>
	<g>
		<path class="st0" d="M127.8,17.7c-3.3,0-6-2.7-6-6c0-3.3,2.7-6,6-6c3.3,0,6,2.7,6,6C133.8,15,131.1,17.7,127.8,17.7z"/>
		<path class="st1" d="M147.7,17.7c-3.3,0-6-2.7-6-6c0-3.3,2.7-6,6-6s6,2.7,6,6C153.6,15,151,17.7,147.7,17.7z"/>
		<path class="st2" d="M167.5,17.7c-3.3,0-6-2.7-6-6c0-3.3,2.7-6,6-6s6,2.7,6,6C173.5,15,170.8,17.7,167.5,17.7z"/>
		<path class="st3" d="M187.4,17.7c-3.3,0-6-2.7-6-6c0-3.3,2.7-6,6-6c3.3,0,6,2.7,6,6C193.4,15,190.7,17.7,187.4,17.7z"/>
		<path class="st4" d="M207.3,17.7c-3.3,0-6-2.7-6-6c0-3.3,2.7-6,6-6c3.3,0,6,2.7,6,6C213.3,15,210.6,17.7,207.3,17.7z"/>
		<path class="st5" d="M227.1,17.7c-3.3,0-6-2.7-6-6c0-3.3,2.7-6,6-6c3.3,0,6,2.7,6,6C233.1,15,230.5,17.7,227.1,17.7z"/>
		<path class="st6" d="M247,17.7c-3.3,0-6-2.7-6-6c0-3.3,2.7-6,6-6c3.3,0,6,2.7,6,6C253,15,250.3,17.7,247,17.7z"/>
	</g>
	<g>
		<path class="st7" d="M127.8,5.8c3.3,0,6,2.7,6,6c0,3.3-2.7,6-6,6c-3.3,0-6-2.7-6-6C121.8,8.4,124.5,5.8,127.8,5.8z"/>
		<path class="st1" d="M107.9,5.8c3.3,0,6,2.7,6,6c0,3.3-2.7,6-6,6c-3.3,0-6-2.7-6-6C101.9,8.4,104.6,5.8,107.9,5.8z"/>
		<path class="st2" d="M88,5.8c3.3,0,6,2.7,6,6c0,3.3-2.7,6-6,6s-6-2.7-6-6C82.1,8.4,84.7,5.8,88,5.8z"/>
		<path class="st3" d="M68.2,5.8c3.3,0,6,2.7,6,6c0,3.3-2.7,6-6,6c-3.3,0-6-2.7-6-6C62.2,8.4,64.9,5.8,68.2,5.8z"/>
		<path class="st4" d="M48.3,5.8c3.3,0,6,2.7,6,6c0,3.3-2.7,6-6,6c-3.3,0-6-2.7-6-6C42.3,8.4,45,5.8,48.3,5.8z"/>
		<path class="st5" d="M28.4,5.8c3.3,0,6,2.7,6,6c0,3.3-2.7,6-6,6c-3.3,0-6-2.7-6-6C22.5,8.4,25.1,5.8,28.4,5.8z"/>
		<path class="st6" d="M8.6,5.8c3.3,0,6,2.7,6,6c0,3.3-2.7,6-6,6c-3.3,0-6-2.7-6-6C2.6,8.4,5.3,5.8,8.6,5.8z"/>
	</g>
</g>
</svg>
