<svg height="512" viewBox="0 0 58 51" width="512" xmlns="http://www.w3.org/2000/svg"><g fill-rule="nonzero" fill="none"><path d="M6 9V6a6 6 0 016-6h40a6 6 0 016 6v30a6 6 0 01-6 6z" fill="#547580"/><rect fill="#ecf0f1" height="42" rx="6" width="52" y="9"/><path d="M46 47a2 2 0 002-2V15a2 2 0 00-2-2H6a2 2 0 00-2 2v30a2 2 0 002 2z" fill="#84b5cb"/><circle cx="31" cy="21" fill="#f0c419" r="3"/><path d="M48 27v18a2.006 2.006 0 01-2 2H36a34.013 34.013 0 00-8.77-12.99A37.774 37.774 0 0148 27z" fill="#5d4c72"/><path d="M36 47H6a2.006 2.006 0 01-2-2V25c3.33.08 14.36.98 23.23 9.01A34.013 34.013 0 0136 47z" fill="#955ba5"/></g></svg>