<?xml version="1.0" encoding="utf-8"?>
<!-- Generator: Adobe Illustrator 23.0.1, SVG Export Plug-In . SVG Version: 6.00 Build 0)  -->
<svg version="1.1" id="page-not-found" xmlns="http://www.w3.org/2000/svg" xmlns:xlink="http://www.w3.org/1999/xlink" x="0px"
	 y="0px" viewBox="0 0 512 512" style="enable-background:new 0 0 512 512;" xml:space="preserve">
<style type="text/css">
	.st0{opacity:0.25;fill:#F6D365;enable-background:new    ;}
	.st1{opacity:0.5;fill:#F6D365;enable-background:new    ;}
	.st2{opacity:0.1;}
	.st3{fill:#222222;}
	.st4{opacity:0.1;fill:#565656;enable-background:new    ;}
	.st5{opacity:0.4;fill:#565656;enable-background:new    ;}
	.st6{fill:#F2F2F2;}
	.st7{fill:#DDDDDD;}
	.st8{fill:#E8E8E8;}
	.st9{fill:#575757;}
	.st10{fill:#CCCCCC;}
	.st11{clip-path:url(#SVGID_2_);}
	.st12{fill:#F6D365;}
	.st13{clip-path:url(#SVGID_4_);}
	.st14{fill:#383838;}
</style>
<polygon id="XMLID_5_" class="st0" points="73.5,130.5 177.9,70.3 177.8,226.4 74,286.5 "/>
<polygon id="XMLID_4_" class="st1" points="86.5,141.5 190.9,81.3 190.8,237.4 87,297.5 "/>
<g id="XMLID_239_" transform="translate(65.196456, 76.720034)" class="st2">
	<g id="XMLID_240_" transform="translate(0.009535, 0.154651)">
		<g id="XMLID_241_" transform="translate(0.000000, 0.000000)">
			<polygon id="XMLID_242_" class="st3" points="-55.2,210.7 171.7,99.9 437.8,231.6 207.9,348.4 			"/>
		</g>
	</g>
</g>
<g id="XMLID_196_" transform="translate(0.000000, 57.051080)">
	<polygon id="XMLID_198_" class="st4" points="388.7,252.6 414.5,240 444.6,255.1 418.6,268.4 	"/>
	<polygon id="XMLID_197_" class="st5" points="241,260.8 263.6,249.7 290.1,262.9 267.2,274.5 	"/>
</g>
<polygon id="XMLID_446_" class="st6" points="321.8,178.2 425.3,118.4 425.8,274.4 321.8,334.3 "/>
<polygon id="XMLID_216_" class="st7" points="425.2,118.4 415,112.3 310.9,172.5 321,178.2 "/>
<polygon id="XMLID_215_" class="st8" points="321,178.2 310.9,172.5 311.2,184.5 321.4,190.4 "/>
<path id="XMLID_440_" class="st9" d="M388.9,229.5v-48.2l-10.4,5.8l-20.9,60v12.2l20.1-12.2v24.3l11.2-6v-24.1l10.1-6v-11.9
	L388.9,229.5z M377.7,235.4l-10.6,5.9l10.6-29.9V235.4z"/>
<polygon id="XMLID_208_" class="st6" points="102.5,172.5 206.9,112.3 206.8,268.4 103,328.5 "/>
<polyline id="XMLID_435_" class="st7" points="206.9,112.3 196.4,106.3 92.5,166.3 102.5,172.5 206.9,112.3 "/>
<polyline id="XMLID_2_" class="st8" points="92.5,166.3 102.5,172.5 103,328.5 92.5,322.5 92.5,166.3 102.5,172.5 "/>
<path id="XMLID_430_" class="st9" d="M168.7,221.5v-48.2l-9.8,5.8l-20.3,60v12.2l19-12.2v24.3l11.2-6v-24.1l11.2-6v-12L168.7,221.5z
	 M157.5,227.4l-10.6,5.9l10.6-29.9V227.4z"/>
<polygon id="XMLID_1_" class="st6" points="311.8,196.6 197.2,130.4 196.9,274.4 311.2,340 "/>
<polygon id="XMLID_425_" class="st8" points="321.4,189.9 321.1,334 311.2,340 310.9,195.8 "/>
<polygon id="XMLID_193_" class="st7" points="207,124.3 196.6,130.4 310.9,196.4 321.4,190.4 "/>
<path id="XMLID_422_" class="st10" d="M256.5,189.2c-11.1-6.4-21.1-6.8-28.2-2.4c-1.1,0.7-9.7,5.3-10.6,6.3c-4.7,4.7,0,8.3,0,18.2
	c-0.1,24.5,17.2,54.4,38.6,66.7c10.5,6,13.4,11.1,17,8.7c0.7-0.5,11.3-6.8,11.9-7.3c6.1-4.4,9.8-12.1,9.8-23.5
	C295.1,231.4,277.9,201.5,256.5,189.2"/>
<path id="XMLID_421_" class="st9" d="M247.1,194.6c-21.4-12.3-38.7-2.5-38.8,22.1c-0.1,24.5,17.2,54.4,38.6,66.7s38.7,2.5,38.8-22.1
	C285.6,236.8,268.4,206.9,247.1,194.6"/>
<g id="XMLID_417_">
	<g>
		<g>
			<defs>
				<polygon id="SVGID_1_" points="231,244.4 231.1,230.8 265.9,250.9 265.8,264.7 				"/>
			</defs>
			<clipPath id="SVGID_2_">
				<use xlink:href="#SVGID_1_"  style="overflow:visible;"/>
			</clipPath>
			<g id="XMLID_418_" class="st11">
				<path id="XMLID_419_" class="st12" d="M263.9,249.8c-0.1,0-0.2-0.1-0.3-0.1l-31.3-9.5c-1-0.3-1.6,0.6-1.3,2.1
					c0.2,1.3,1,2.8,1.9,3.2c0.1,0,0.2,0.1,0.3,0.1l31.3,9.5c1,0.3,1.6-0.6,1.3-2.1C265.7,251.7,264.8,250.4,263.9,249.8"/>
			</g>
		</g>
	</g>
</g>
<g id="XMLID_413_">
	<g>
		<g>
			<defs>
				<polygon id="SVGID_3_" points="227.9,238.1 228.1,196.5 241.6,204.3 241.5,245.8 				"/>
			</defs>
			<clipPath id="SVGID_4_">
				<use xlink:href="#SVGID_3_"  style="overflow:visible;"/>
			</clipPath>
			<g id="XMLID_414_" class="st13">
				<path id="XMLID_415_" class="st12" d="M229.6,197.4c-0.1-0.1-0.3-0.1-0.4-0.2c-0.9-0.2-1.3,0.6-1,1.7l10.3,43.8
					c0.2,0.9,0.9,1.8,1.6,2.1c0.1,0.1,0.3,0.1,0.4,0.2c0.9,0.2,1.3-0.6,1-1.7l-10.3-43.8C230.9,198.6,230.3,197.7,229.6,197.4"/>
			</g>
		</g>
	</g>
</g>
<path id="XMLID_412_" class="st10" d="M240,231.5c-2.6-1.4-5-1.6-6.6-0.6c-0.2,0.1-2.2,1.2-2.5,1.4c-1.1,1.1,0,2,0,4.3
	c0,5.8,4,12.9,9.1,15.8c2.5,1.4,3.1,2.6,4,2c0.1-0.1,2.7-1.7,2.8-1.7c1.4-1,2.4-2.9,2.4-5.6C249.1,241.4,245,234.4,240,231.5"/>
<path id="XMLID_411_" class="st14" d="M237.8,232.7c-5-2.9-9.2-0.6-9.2,5.3s4,12.9,9.1,15.8c5,2.9,9.2,0.6,9.2-5.3
	C246.8,242.8,242.8,235.6,237.8,232.7"/>
<polygon class="st12" points="209.2,151.9 203.2,148.4 203.2,141.5 209.2,144.9 "/>
<polygon class="st12" points="302.2,205.9 296.2,202.4 296.2,195.5 302.2,198.9 "/>
<polygon class="st12" points="213,170.9 210.2,169.3 210.2,166 213,167.6 "/>
<polygon class="st12" points="294,223.9 291.2,222.3 291.2,219 294,220.6 "/>
<polygon class="st12" points="217.9,268.9 216.2,267.9 216.2,265.8 217.9,266.8 "/>
</svg>
