<?xml version="1.0" encoding="utf-8"?>
<!-- Generator: Adobe Illustrator 23.0.1, SVG Export Plug-In . SVG Version: 6.00 Build 0)  -->
<svg version="1.1" id="authentication" xmlns="http://www.w3.org/2000/svg" xmlns:xlink="http://www.w3.org/1999/xlink" x="0px"
	 y="0px" viewBox="0 0 640 480" style="enable-background:new 0 0 640 480;" xml:space="preserve">
<style type="text/css">
	.st0{opacity:0.4;fill:#565656;enable-background:new    ;}
	.st1{opacity:0.3;fill:#565656;enable-background:new    ;}
	.st2{opacity:0.1;fill:#565656;enable-background:new    ;}
</style>
<g id="XMLID_196_" transform="translate(0.000000, 57.051080)">
	<polygon id="XMLID_204_" class="st0" points="4,123.3 28.2,111.6 56.6,125.5 32.1,137.9 	"/>
	<polygon id="XMLID_203_" class="st0" points="580.3,225.7 606.1,213.2 636.5,228.1 610.3,241.3 	"/>
	<polygon id="XMLID_202_" class="st1" points="502.9,113.7 522.3,104.2 545.1,115.5 525.4,125.5 	"/>
	<polygon id="XMLID_201_" class="st1" points="409.6,68.4 429.1,58.9 451.8,70.2 432.2,80.3 	"/>
	<polygon id="XMLID_200_" class="st2" points="61.1,285.8 97.2,268.1 139.5,289.2 102.9,307.8 	"/>
	<polygon id="XMLID_199_" class="st0" points="261.6,361.2 287.9,348.3 318.7,363.6 292.1,377.2 	"/>
	<polygon id="XMLID_198_" class="st2" points="430.8,228.2 453.9,216.9 480.9,230.4 457.6,242.3 	"/>
	<polygon id="XMLID_197_" class="st0" points="298.7,235.5 318.9,225.6 342.6,237.4 322.1,247.8 	"/>
</g>
<polygon id="XMLID_2_" class="st2" points="162.8,213.3 185.9,202 212.9,215.4 189.6,227.3 "/>
<polygon id="XMLID_1_" class="st0" points="217.7,64.6 237.9,54.7 261.6,66.4 241.1,76.9 "/>
</svg>
