<?xml version="1.0" encoding="utf-8"?>
<!-- Generator: Adobe Illustrator 23.0.1, SVG Export Plug-In . SVG Version: 6.00 Build 0)  -->
<svg version="1.1" xmlns="http://www.w3.org/2000/svg" xmlns:xlink="http://www.w3.org/1999/xlink" x="0px" y="0px"
	 viewBox="0 0 512 512" style="enable-background:new 0 0 512 512;" xml:space="preserve">
<style type="text/css">
	.st0{fill:#3A1F5D;}
	.st1{fill:#C83660;}
	.st2{opacity:0.5;}
	.st3{opacity:0.2;}
	.st4{fill:#312A91;}
	.st5{opacity:0.5;fill:url(#SVGID_1_);}
	.st6{fill:url(#SVGID_2_);}
	.st7{opacity:0.5;fill:url(#SVGID_3_);}
	.st8{opacity:0.5;fill:url(#SVGID_4_);}
	.st9{opacity:0.8;fill:url(#SVGID_5_);}
	.st10{fill:#FCCC6B;}
	.st11{opacity:0.1;fill:#0B0244;}
	.st12{opacity:0.8;fill:#3A1F5D;}
	.st13{opacity:0.5;fill:#3A1F5D;}
	.st14{opacity:0.5;fill:url(#SVGID_6_);}
	.st15{fill:url(#SVGID_7_);}
	.st16{opacity:0.5;fill:url(#SVGID_8_);}
	.st17{opacity:0.8;fill:url(#SVGID_9_);}
	.st18{opacity:0.7;fill:#3A1F5D;}
</style>
<g id="circles">
	<g>
		<g>
			<polygon class="st0" points="411.4,336.2 408.9,337.7 408.9,336 411.4,334.5 			"/>
			<polygon class="st0" points="411.4,347.7 408.9,349.2 408.9,339.2 411.4,337.8 			"/>
			<polygon class="st0" points="411.4,353.2 408.9,354.7 408.9,350.7 411.4,349.3 			"/>
			<polygon class="st0" points="411.4,358.9 408.9,360.4 408.9,356.4 411.4,355 			"/>
			<polygon class="st0" points="415.2,339.5 412.7,341 412.7,337 415.2,335.6 			"/>
			<polygon class="st0" points="415.2,347.1 412.7,348.5 412.7,342.7 415.2,341.3 			"/>
			<polygon class="st0" points="415.2,354 412.7,355.5 412.7,350.5 415.2,349.1 			"/>
			<polygon class="st0" points="411.4,364.6 408.9,366.1 408.9,362.1 411.4,360.7 			"/>
			<polygon class="st0" points="415.2,334 412.7,335.5 412.7,333.8 415.2,332.3 			"/>
		</g>
		<polygon class="st0" points="413.3,369.1 408.9,371.6 408.9,370 413.3,367.4 		"/>
	</g>
	<path class="st1" d="M458,144.7c-2.2-3.7-7-5-10.7-2.8c-3.7,2.2-5,7-2.8,10.7c2.2,3.7,7,5,10.7,2.8
		C458.9,153.3,460.2,148.5,458,144.7z"/>
	<g>
		<path class="st1" d="M499,310.6c-1.2-2.1-3.9-2.8-6-1.6c-2.1,1.2-2.8,3.9-1.6,6c1.2,2.1,3.9,2.8,6,1.6
			C499.5,315.3,500.2,312.7,499,310.6z"/>
	</g>
	<g class="st2">
		<path class="st1" d="M483.5,319c-0.8-1.4-2.5-1.8-3.9-1c-1.4,0.8-1.8,2.5-1,3.9c0.8,1.4,2.5,1.8,3.9,1
			C483.8,322.1,484.3,320.4,483.5,319z"/>
	</g>
	<g class="st3">
		<path class="st1" d="M472.7,311.9c-0.5-0.8-1.6-1.1-2.4-0.6c-0.8,0.5-1.1,1.6-0.6,2.4c0.5,0.8,1.6,1.1,2.4,0.6
			C472.9,313.8,473.2,312.8,472.7,311.9z"/>
	</g>
	<g>
		<path class="st1" d="M474,238.7c-1.3-2.2-4.2-3-6.4-1.7c-2.2,1.3-3,4.2-1.7,6.4c1.3,2.2,4.2,3,6.4,1.7
			C474.6,243.8,475.3,240.9,474,238.7z"/>
	</g>
	<g>
		<path class="st1" d="M24.2,272.3c-3.1-5.3-10-7.1-15.3-4c-5.3,3.1-7.1,10-4,15.3c3.1,5.3,10,7.1,15.3,4
			C25.5,284.5,27.3,277.7,24.2,272.3z"/>
	</g>
	<g>
		<path class="st1" d="M48.7,367.1c-1.9-3.2-6-4.3-9.2-2.4c-3.2,1.9-4.3,6-2.4,9.2c1.9,3.2,6,4.3,9.2,2.4
			C49.5,374.4,50.6,370.3,48.7,367.1z"/>
	</g>
	<g>
		<path class="st1" d="M80.5,289.8c-0.8-1.3-2.4-1.7-3.7-1c-1.3,0.8-1.7,2.4-1,3.7c0.8,1.3,2.4,1.7,3.7,1
			C80.8,292.8,81.2,291.1,80.5,289.8z"/>
	</g>
	<g>
		<path class="st1" d="M73.3,265.3c-1.1-1.8-3.4-2.5-5.3-1.4c-1.8,1.1-2.5,3.4-1.4,5.3c1.1,1.8,3.4,2.5,5.3,1.4
			C73.7,269.5,74.3,267.1,73.3,265.3z"/>
	</g>
	<g>
		<path class="st1" d="M67.4,289.3c-0.5-0.8-1.6-1.1-2.4-0.6c-0.8,0.5-1.1,1.6-0.6,2.4c0.5,0.8,1.6,1.1,2.4,0.6
			C67.6,291.3,67.9,290.2,67.4,289.3z"/>
	</g>
</g>
<g id="vaccum">
	<g>
		<g>
			<g>
				<path class="st4" d="M426,401.1v-26.8h-69.1l-81.6-47.1c-10.9-6.3-29.9-5.5-42.5,1.8l-78.6,45.4H85v28.3h0.1
					c-0.3,4.3,2.1,8.4,7.3,11.4l143.4,82.8c10.9,6.3,29.9,5.5,42.5-1.8l137.3-79.3C422.9,411.5,426.4,406.1,426,401.1z"/>
				<linearGradient id="SVGID_1_" gradientUnits="userSpaceOnUse" x1="9.669" y1="411.9464" x2="350.6289" y2="411.9464">
					<stop  offset="0" style="stop-color:#C83660"/>
					<stop  offset="0.1066" style="stop-color:#B43360"/>
					<stop  offset="0.404" style="stop-color:#802A5E"/>
					<stop  offset="0.6627" style="stop-color:#5A245E"/>
					<stop  offset="0.87" style="stop-color:#43205D"/>
					<stop  offset="1" style="stop-color:#3A1F5D"/>
				</linearGradient>
				<path class="st5" d="M426,401.1v-26.8h-69.1l-81.6-47.1c-10.9-6.3-29.9-5.5-42.5,1.8l-78.6,45.4H85v28.3h0.1
					c-0.3,4.3,2.1,8.4,7.3,11.4l143.4,82.8c10.9,6.3,29.9,5.5,42.5-1.8l137.3-79.3C422.9,411.5,426.4,406.1,426,401.1z"/>
				<linearGradient id="SVGID_2_" gradientUnits="userSpaceOnUse" x1="255.5161" y1="411.9387" x2="425.9961" y2="411.9387">
					<stop  offset="0" style="stop-color:#3A1F5D"/>
					<stop  offset="1" style="stop-color:#3A1F5D"/>
				</linearGradient>
				<path class="st6" d="M275.3,327.1c-5.2-3-12.4-4.4-19.7-4.2v178c8-0.2,16.3-2.2,22.8-6l137.3-79.3c7.3-4.2,10.8-9.6,10.4-14.7
					v-26.8h-69.1L275.3,327.1z"/>
				<path class="st4" d="M235.8,468.5L92.4,385.7c-10.9-6.3-9.5-17.3,3.1-24.5l137.3-79.3c12.6-7.3,31.6-8.1,42.5-1.8l143.4,82.8
					c10.9,6.3,9.5,17.3-3.1,24.5l-137.3,79.3C265.7,474,246.7,474.8,235.8,468.5z"/>
				<linearGradient id="SVGID_3_" gradientUnits="userSpaceOnUse" x1="85.0362" y1="374.28" x2="426.0204" y2="374.28">
					<stop  offset="0" style="stop-color:#C83660"/>
					<stop  offset="0.1066" style="stop-color:#B43360"/>
					<stop  offset="0.404" style="stop-color:#802A5E"/>
					<stop  offset="0.6627" style="stop-color:#5A245E"/>
					<stop  offset="0.87" style="stop-color:#43205D"/>
					<stop  offset="1" style="stop-color:#3A1F5D"/>
				</linearGradient>
				<path class="st7" d="M235.8,468.5L92.4,385.7c-10.9-6.3-9.5-17.3,3.1-24.5l137.3-79.3c12.6-7.3,31.6-8.1,42.5-1.8l143.4,82.8
					c10.9,6.3,9.5,17.3-3.1,24.5l-137.3,79.3C265.7,474,246.7,474.8,235.8,468.5z"/>
				<path class="st0" d="M239.6,450.2l-115.5-66.7c-8.8-5.1-7.7-13.9,2.5-19.8l110.6-63.9c10.1-5.9,25.5-6.5,34.3-1.4L387,365.1
					c8.8,5.1,7.7,13.9-2.5,19.8l-110.6,63.9C263.7,454.6,248.4,455.2,239.6,450.2z"/>
				<path class="st1" d="M126.5,372.3l110.6-63.9c10.1-5.9,25.5-6.5,34.3-1.4L387,373.8c2.2,1.3,3.7,2.7,4.7,4.3
					c2.5-4.7,1.1-9.7-4.7-13l-115.5-66.7c-8.8-5.1-24.1-4.4-34.3,1.4l-110.6,63.9c-7.6,4.4-10.1,10.5-7.2,15.4
					C120.7,376.7,123.1,374.3,126.5,372.3z"/>
				<linearGradient id="SVGID_4_" gradientUnits="userSpaceOnUse" x1="85.0362" y1="374.2852" x2="259.0667" y2="374.2852">
					<stop  offset="0" style="stop-color:#42E8E0"/>
					<stop  offset="0.1022" style="stop-color:#3CCACE"/>
					<stop  offset="0.3445" style="stop-color:#2F87A5"/>
					<stop  offset="0.564" style="stop-color:#255385"/>
					<stop  offset="0.7534" style="stop-color:#1E2D6E"/>
					<stop  offset="0.905" style="stop-color:#1A1660"/>
					<stop  offset="1" style="stop-color:#180D5B"/>
				</linearGradient>
				<path class="st8" d="M240.6,468.5L97.2,385.7c-10.9-6.3-13.5-15.5,3.1-24.5l137.3-79.3c6.2-3.6,13.9-5.6,21.5-5.9
					c-9-0.4-18.8,1.6-26.3,5.9L95.4,361.1c-12.6,7.3-13.9,18.3-3.1,24.5l143.4,82.8c5.5,3.2,13.2,4.6,21,4.2
					C250.7,472.4,245,471,240.6,468.5z"/>
				<linearGradient id="SVGID_5_" gradientUnits="userSpaceOnUse" x1="131.4132" y1="473.4995" x2="416.8163" y2="286.9531">
					<stop  offset="0" style="stop-color:#C83660"/>
					<stop  offset="1" style="stop-color:#C83660"/>
				</linearGradient>
				<path class="st9" d="M415.6,399.4l-137.3,79.3c-12.6,7.3-31.6,8.1-42.5,1.8L92.4,397.6c-5.2-3-7.6-7.1-7.3-11.4H85v5.9h0.1
					c-0.3,4.3,2.1,8.4,7.3,11.4l143.4,82.8c10.9,6.3,29.9,5.5,42.5-1.8l137.3-79.3c7.3-4.2,10.8-9.6,10.4-14.7v-5.9
					C426.4,389.8,422.9,395.2,415.6,399.4z"/>
			</g>
			<g>
				<path class="st10" d="M390.7,391.6c1.6,0.9,1.6,2.4,0,3.3c-1.6,0.9-4.1,0.9-5.7,0c-1.6-0.9-1.6-2.4,0-3.3
					C386.6,390.7,389.1,390.7,390.7,391.6z"/>
				<path class="st10" d="M399.5,386.5c1.6,0.9,1.6,2.4,0,3.3c-1.6,0.9-4.1,0.9-5.7,0c-1.6-0.9-1.6-2.4,0-3.3
					C395.4,385.6,398,385.6,399.5,386.5z"/>
				<path class="st10" d="M408.4,381.4c1.6,0.9,1.6,2.4,0,3.3s-4.1,0.9-5.7,0c-1.6-0.9-1.6-2.4,0-3.3
					C404.3,380.5,406.8,380.5,408.4,381.4z"/>
			</g>
		</g>
		<g>
			<g>
				<path class="st11" d="M248.1,409.8l-54-31.2c-4.1-2.4-3.6-6.5,1.1-9.2l51.7-29.9c4.7-2.7,11.9-3,16-0.7l54,31.2
					c4.1,2.4,3.6,6.5-1.1,9.2l-51.7,29.9C259.4,411.8,252.2,412.1,248.1,409.8z"/>
				<path class="st12" d="M279,202h-46.9v172.3h0c0,0.6,0.3,1.2,1,1.6l19.7,11.4c1.5,0.9,4.1,0.8,5.8-0.2l18.9-10.9
					c0.9-0.5,1.4-1.2,1.4-1.8h0V202z"/>
				<path class="st13" d="M319.7,171.9H191.3v199.3h0c-0.1,1.6,0.8,3.2,2.7,4.3l54,31.2c4.1,2.4,11.3,2.1,16-0.7l51.7-29.9
					c2.5-1.4,3.8-3.2,3.9-5h0V171.9z"/>
				<path class="st4" d="M426,135.6v-26.8h-69.1l-81.6-47.1c-10.9-6.3-29.9-5.5-42.5,1.8l-78.6,45.4H85v28.3h0.1
					c-0.3,4.3,2.1,8.4,7.3,11.4l143.4,82.8c10.9,6.3,29.9,5.5,42.5-1.8l137.3-79.3C422.9,146.1,426.4,140.6,426,135.6z"/>
				<linearGradient id="SVGID_6_" gradientUnits="userSpaceOnUse" x1="9.669" y1="146.4679" x2="350.6289" y2="146.4679">
					<stop  offset="0" style="stop-color:#C83660"/>
					<stop  offset="0.1066" style="stop-color:#B43360"/>
					<stop  offset="0.404" style="stop-color:#802A5E"/>
					<stop  offset="0.6627" style="stop-color:#5A245E"/>
					<stop  offset="0.87" style="stop-color:#43205D"/>
					<stop  offset="1" style="stop-color:#3A1F5D"/>
				</linearGradient>
				<path class="st14" d="M426,135.6v-26.8h-69.1l-81.6-47.1c-10.9-6.3-29.9-5.5-42.5,1.8l-78.6,45.4H85v28.3h0.1
					c-0.3,4.3,2.1,8.4,7.3,11.4l143.4,82.8c10.9,6.3,29.9,5.5,42.5-1.8l137.3-79.3C422.9,146.1,426.4,140.6,426,135.6z"/>
				<linearGradient id="SVGID_7_" gradientUnits="userSpaceOnUse" x1="255.5161" y1="146.4601" x2="425.9961" y2="146.4601">
					<stop  offset="0" style="stop-color:#3A1F5D"/>
					<stop  offset="1" style="stop-color:#3A1F5D"/>
				</linearGradient>
				<path class="st15" d="M275.3,61.7c-5.2-3-12.4-4.4-19.7-4.2v178c8-0.2,16.3-2.2,22.8-6l137.3-79.3c7.3-4.2,10.8-9.6,10.4-14.7
					v-26.8h-69.1L275.3,61.7z"/>
				<path class="st4" d="M235.8,203L92.4,120.2c-10.9-6.3-9.5-17.3,3.1-24.5l137.3-79.3c12.6-7.3,31.6-8.1,42.5-1.8l143.4,82.8
					c10.9,6.3,9.5,17.3-3.1,24.5l-137.3,79.3C265.7,208.5,246.7,209.3,235.8,203z"/>
				<linearGradient id="SVGID_8_" gradientUnits="userSpaceOnUse" x1="85.0362" y1="108.8014" x2="426.0204" y2="108.8014">
					<stop  offset="0" style="stop-color:#C83660"/>
					<stop  offset="0.1066" style="stop-color:#B43360"/>
					<stop  offset="0.404" style="stop-color:#802A5E"/>
					<stop  offset="0.6627" style="stop-color:#5A245E"/>
					<stop  offset="0.87" style="stop-color:#43205D"/>
					<stop  offset="1" style="stop-color:#3A1F5D"/>
				</linearGradient>
				<path class="st16" d="M235.8,203L92.4,120.2c-10.9-6.3-9.5-17.3,3.1-24.5l137.3-79.3c12.6-7.3,31.6-8.1,42.5-1.8l143.4,82.8
					c10.9,6.3,9.5,17.3-3.1,24.5l-137.3,79.3C265.7,208.5,246.7,209.3,235.8,203z"/>
				<path class="st0" d="M239.6,184.7L124.1,118c-8.8-5.1-7.7-13.9,2.5-19.8l110.6-63.9c10.1-5.9,25.5-6.5,34.3-1.4L387,99.6
					c8.8,5.1,7.7,13.9-2.5,19.8l-110.6,63.9C263.7,189.1,248.4,189.8,239.6,184.7z"/>
				<path class="st1" d="M126.5,106.9L237.2,43c10.1-5.9,25.5-6.5,34.3-1.4L387,108.3c2.2,1.3,3.7,2.7,4.7,4.3
					c2.5-4.7,1.1-9.7-4.7-13L271.4,32.9c-8.8-5.1-24.1-4.4-34.3,1.4L126.5,98.2c-7.6,4.4-10.1,10.5-7.2,15.4
					C120.7,111.2,123.1,108.9,126.5,106.9z"/>
				<linearGradient id="SVGID_9_" gradientUnits="userSpaceOnUse" x1="134.515" y1="205.9935" x2="378.4513" y2="46.5508">
					<stop  offset="0" style="stop-color:#C83660"/>
					<stop  offset="1" style="stop-color:#C83660"/>
				</linearGradient>
				<path class="st17" d="M415.6,133.9l-137.3,79.3c-12.6,7.3-31.6,8.1-42.5,1.8L92.4,132.1c-5.2-3-7.6-7.1-7.3-11.4H85v5.9h0.1
					c-0.3,4.3,2.1,8.4,7.3,11.4l143.4,82.8c10.9,6.3,29.9,5.5,42.5-1.8l137.3-79.3c7.3-4.2,10.8-9.6,10.4-14.7v-5.9
					C426.4,124.3,422.9,129.7,415.6,133.9z"/>
			</g>
			<g>
				<path class="st10" d="M390.7,126.1c1.6,0.9,1.6,2.4,0,3.3c-1.6,0.9-4.1,0.9-5.7,0c-1.6-0.9-1.6-2.4,0-3.3
					C386.6,125.2,389.1,125.2,390.7,126.1z"/>
				<path class="st10" d="M399.5,121c1.6,0.9,1.6,2.4,0,3.3c-1.6,0.9-4.1,0.9-5.7,0c-1.6-0.9-1.6-2.4,0-3.3
					C395.4,120.1,398,120.1,399.5,121z"/>
				<path class="st10" d="M408.4,115.9c1.6,0.9,1.6,2.4,0,3.3s-4.1,0.9-5.7,0c-1.6-0.9-1.6-2.4,0-3.3
					C404.3,115,406.8,115,408.4,115.9z"/>
			</g>
		</g>
		<g>
			<path class="st13" d="M426,135.7c0.3,5-3.2,10.3-10.4,14.4l-137.3,79.3c-12.6,7.3-31.6,8.1-42.5,1.8L92.4,148.3
				c-5.2-3-7.6-7.1-7.3-11.4H85v238l0.1,0c-0.1,4.1,2.2,8,7.2,10.9l143.4,82.8c10.9,6.3,29.9,5.5,42.5-1.8l137.3-79.3
				c7-4,10.4-9.2,10.3-14.1l0.1,0L426,135.7L426,135.7z"/>
			<path class="st18" d="M415.7,150.1l-137.3,79.3c-6.5,3.8-14.8,5.8-22.8,6v237.5c8-0.2,16.3-2.2,22.8-6l137.3-79.3
				c7-4,10.4-9.2,10.3-14.1l0.1,0V135.7l-0.1,0C426.3,140.7,422.8,146,415.7,150.1z"/>
		</g>
	</g>
</g>
</svg>
