<?xml version="1.0" encoding="utf-8"?>
<!-- Generator: Adobe Illustrator 23.0.1, SVG Export Plug-In . SVG Version: 6.00 Build 0)  -->
<svg version="1.1" id="Layer_1" xmlns="http://www.w3.org/2000/svg" xmlns:xlink="http://www.w3.org/1999/xlink" x="0px" y="0px"
	 viewBox="0 0 256 256" style="enable-background:new 0 0 256 256;" xml:space="preserve">
<style type="text/css">
	.st0{fill:#FFBC00;}
	.st1{fill:url(#SVGID_1_);}
	.st2{fill:url(#SVGID_2_);}
	.st3{fill:url(#SVGID_3_);}
	.st4{fill:url(#SVGID_4_);}
	.st5{fill:url(#SVGID_5_);}
	.st6{fill:url(#SVGID_6_);}
	.st7{fill:url(#SVGID_7_);}
	.st8{fill:url(#SVGID_8_);}
	.st9{fill:url(#SVGID_9_);}
	.st10{fill:url(#SVGID_10_);}
	.st11{fill:url(#SVGID_11_);}
	.st12{fill:url(#SVGID_12_);}
	.st13{fill:url(#SVGID_13_);}
	.st14{fill:url(#SVGID_14_);}
	.st15{fill:url(#SVGID_15_);}
	.st16{fill:url(#SVGID_16_);}
	.st17{fill:url(#SVGID_17_);}
	.st18{fill:url(#SVGID_18_);}
	.st19{fill:url(#SVGID_19_);}
	.st20{fill:url(#SVGID_20_);}
	.st21{fill:url(#SVGID_21_);}
	.st22{fill:url(#SVGID_22_);}
</style>
<g id="document">
	<g>
		<path class="st0" d="M241.5,140L46.9,252.7c-4.6,2.6-8.3,1.1-8.3-3.5v-149c0-4.6,3.7-10.4,8.3-13.1l73.7-42.5
			c2.6-1.5,5-1.7,6.6-0.5l25.3,18.5c1.6,1.1,4,0.9,6.6-0.5l82.5-47.9c4.6-2.6,8.3-1.1,8.3,3.5V127
			C249.8,131.5,246.1,137.4,241.5,140z"/>
	</g>
	<linearGradient id="SVGID_1_" gradientUnits="userSpaceOnUse" x1="20.5922" y1="168.6658" x2="40.5168" y2="168.6658">
		<stop  offset="0" style="stop-color:#4B39A9"/>
		<stop  offset="1" style="stop-color:#662292"/>
	</linearGradient>
	<path class="st1" d="M40.5,253.4L22.6,243c-1.2-0.7-2-2.2-2-4.2v-149c0-1.8,0.6-3.9,1.6-5.8l18,10.6c-1,1.9-1.5,3.9-1.5,5.7v149
		C38.6,251.2,39.3,252.6,40.5,253.4z"/>
	<linearGradient id="SVGID_2_" gradientUnits="userSpaceOnUse" x1="22.1802" y1="63.6927" x2="126.573" y2="63.6927">
		<stop  offset="0" style="stop-color:#6F5EC2"/>
		<stop  offset="1" style="stop-color:#7D37A8"/>
	</linearGradient>
	<path class="st2" d="M126.6,43.7c-1.6-0.7-3.7-0.4-6,0.9L46.9,87.1c-2.8,1.6-5.2,4.4-6.8,7.4L22.2,84c1.5-2.9,3.9-5.7,6.7-7.3
		l73.7-42.5c2.3-1.3,4.5-1.6,6.1-0.8v0L126.6,43.7z"/>
	<linearGradient id="SVGID_3_" gradientUnits="userSpaceOnUse" x1="38.6453" y1="127.9347" x2="247.6705" y2="127.9347">
		<stop  offset="0" style="stop-color:#6F5EC2"/>
		<stop  offset="1" style="stop-color:#7D37A8"/>
	</linearGradient>
	<path class="st3" d="M247.7,13.3l-15.9,18v85.2c0,4.6-3.7,10.4-8.3,13.1L73.6,216.4l-32.8,37.1l-0.3-0.2c-1.2-0.8-1.9-2.2-1.9-4.2
		v-149c0-1.8,0.6-3.8,1.5-5.7c1.5-3,4-5.8,6.8-7.4l73.7-42.5c2.3-1.3,4.4-1.6,6-0.9l0.6,0.4l-3.3,0.3l10.5,7.7
		c1.1,0.8,2.6,0.9,4.4,0.4c0.7-0.2,1.5-0.5,2.2-1l82.5-47.9c2.6-1.5,4.9-1.6,6.4-0.6l17.3,10.1L247.7,13.3z"/>
	<linearGradient id="SVGID_4_" gradientUnits="userSpaceOnUse" x1="38.6453" y1="133.4042" x2="249.8318" y2="133.4042">
		<stop  offset="0" style="stop-color:#2D206D"/>
		<stop  offset="1" style="stop-color:#652C8A"/>
	</linearGradient>
	<path class="st4" d="M249.8,17.6V127c0,4.6-3.7,10.4-8.3,13.1L46.9,252.7c-2.4,1.4-4.6,1.6-6.1,0.8l-0.3-0.2
		c-1.2-0.8-1.9-2.2-1.9-4.2v-149c0-1.8,0.6-3.8,1.5-5.7c1.5-3,4-5.8,6.8-7.4l73.7-42.5c2.3-1.3,4.4-1.6,6-0.9
		c0.2,0.1,0.4,0.2,0.6,0.4l11.6,8.5l13.7,10c1.6,1.1,4,0.9,6.6-0.5l82.5-47.9c2.2-1.3,4.2-1.6,5.7-1
		C248.8,13.7,249.8,15.2,249.8,17.6z"/>
	<g>
		<linearGradient id="SVGID_5_" gradientUnits="userSpaceOnUse" x1="165.7106" y1="27.9857" x2="193.4135" y2="27.9857">
			<stop  offset="0" style="stop-color:#D12284"/>
			<stop  offset="1" style="stop-color:#EA63A5"/>
		</linearGradient>
		<path class="st5" d="M166.6,33.9c0.8,1.3,2.2,2.5,4.3,3.3c4.8,1.9,9.1,1.7,12.4,0.8c4.7-1.2,8.5-4.8,9.8-9.5
			c0.7-2.5,0.7-5.3-1.5-7.3c-0.1-0.1-0.2-0.2-0.2-0.2c-0.7-0.6-1.5-1.2-2.3-1.6c-4.6-2.7-10.4-2.9-15.2-0.4l-0.2,0.1
			C169.3,21.4,163.5,28.8,166.6,33.9z"/>
		<g>
			<linearGradient id="SVGID_6_" gradientUnits="userSpaceOnUse" x1="166.2661" y1="35.2221" x2="167.2779" y2="35.2221">
				<stop  offset="0" style="stop-color:#150E3C"/>
				<stop  offset="1" style="stop-color:#491E65"/>
			</linearGradient>
			<path class="st6" d="M166.8,40.3c-0.3,0-0.5-0.2-0.5-0.5v-9.2c0-0.3,0.2-0.5,0.5-0.5c0.3,0,0.5,0.2,0.5,0.5v9.2
				C167.3,40.1,167.1,40.3,166.8,40.3z"/>
		</g>
		<linearGradient id="SVGID_7_" gradientUnits="userSpaceOnUse" x1="163.6693" y1="31.8152" x2="173.8393" y2="31.8152">
			<stop  offset="0" style="stop-color:#FFAC13"/>
			<stop  offset="1" style="stop-color:#FFE200"/>
		</linearGradient>
		<circle class="st7" cx="168.8" cy="31.8" r="5.1"/>
		<g>
			<linearGradient id="SVGID_8_" gradientUnits="userSpaceOnUse" x1="178.3503" y1="40.659" x2="185.3971" y2="40.659">
				<stop  offset="0" style="stop-color:#150E3C"/>
				<stop  offset="1" style="stop-color:#491E65"/>
			</linearGradient>
			<path class="st8" d="M184.9,45.3c-0.3,0-0.5-0.2-0.5-0.5v-5l-5.8-2.8c-0.3-0.1-0.4-0.4-0.2-0.7c0.1-0.3,0.4-0.4,0.7-0.2l6,2.9
				c0.2,0.1,0.3,0.3,0.3,0.5v5.3C185.4,45.1,185.2,45.3,184.9,45.3z"/>
		</g>
		<g>
			<linearGradient id="SVGID_9_" gradientUnits="userSpaceOnUse" x1="185.5605" y1="37.234" x2="191.1372" y2="37.234">
				<stop  offset="0" style="stop-color:#150E3C"/>
				<stop  offset="1" style="stop-color:#491E65"/>
			</linearGradient>
			<path class="st9" d="M190.6,42c-0.3,0-0.5-0.2-0.5-0.5v-5.9l-4.3-2.1c-0.3-0.1-0.4-0.4-0.2-0.7c0.1-0.3,0.4-0.4,0.7-0.2l4.6,2.2
				c0.2,0.1,0.3,0.3,0.3,0.5v6.3C191.1,41.8,190.9,42,190.6,42z"/>
		</g>
		<g>
			<linearGradient id="SVGID_10_" gradientUnits="userSpaceOnUse" x1="190.1254" y1="33.6084" x2="195.7022" y2="33.6084">
				<stop  offset="0" style="stop-color:#150E3C"/>
				<stop  offset="1" style="stop-color:#491E65"/>
			</linearGradient>
			<path class="st10" d="M195.2,39.4c-0.3,0-0.5-0.2-0.5-0.5v-7.9l-4.3-2.1c-0.3-0.1-0.4-0.4-0.2-0.7c0.1-0.3,0.4-0.4,0.7-0.2
				l4.6,2.2c0.2,0.1,0.3,0.3,0.3,0.5v8.3C195.7,39.1,195.5,39.4,195.2,39.4z"/>
		</g>
	</g>
	<g>
		<linearGradient id="SVGID_11_" gradientUnits="userSpaceOnUse" x1="185.1991" y1="161.1698" x2="227.338" y2="161.1698">
			<stop  offset="0" style="stop-color:#D12284"/>
			<stop  offset="1" style="stop-color:#EA63A5"/>
		</linearGradient>
		<path class="st11" d="M186.5,170.2c1.2,2,3.3,3.8,6.5,5.1c7.2,3,13.8,2.5,18.8,1.2c7.2-1.9,12.9-7.3,14.9-14.5
			c1.1-3.8,1-8-2.3-11.1c-0.1-0.1-0.3-0.2-0.4-0.3c-1.1-1-2.2-1.8-3.4-2.5c-7-4.2-15.8-4.4-23.1-0.5l-0.3,0.2
			C190.7,151.2,181.9,162.5,186.5,170.2z"/>
		<g>
			<linearGradient id="SVGID_12_" gradientUnits="userSpaceOnUse" x1="186.0439" y1="172.1767" x2="187.5831" y2="172.1767">
				<stop  offset="0" style="stop-color:#150E3C"/>
				<stop  offset="1" style="stop-color:#491E65"/>
			</linearGradient>
			<path class="st12" d="M186.8,179.9c-0.4,0-0.8-0.3-0.8-0.8v-14c0-0.4,0.3-0.8,0.8-0.8c0.4,0,0.8,0.3,0.8,0.8v14
				C187.6,179.6,187.2,179.9,186.8,179.9z"/>
		</g>
		<linearGradient id="SVGID_13_" gradientUnits="userSpaceOnUse" x1="182.0939" y1="166.9949" x2="197.5637" y2="166.9949">
			<stop  offset="0" style="stop-color:#FFAC13"/>
			<stop  offset="1" style="stop-color:#FFE200"/>
		</linearGradient>
		<circle class="st13" cx="189.8" cy="167" r="7.7"/>
		<g>
			<linearGradient id="SVGID_14_" gradientUnits="userSpaceOnUse" x1="204.4254" y1="180.4471" x2="215.1441" y2="180.4471">
				<stop  offset="0" style="stop-color:#150E3C"/>
				<stop  offset="1" style="stop-color:#491E65"/>
			</linearGradient>
			<path class="st14" d="M214.4,187.5c-0.4,0-0.8-0.3-0.8-0.8v-7.6l-8.7-4.3c-0.4-0.2-0.5-0.6-0.4-1c0.2-0.4,0.6-0.5,1-0.4l9.2,4.5
				c0.3,0.1,0.4,0.4,0.4,0.7v8.1C215.1,187.2,214.8,187.5,214.4,187.5z"/>
		</g>
		<g>
			<linearGradient id="SVGID_15_" gradientUnits="userSpaceOnUse" x1="215.3927" y1="175.237" x2="223.8757" y2="175.237">
				<stop  offset="0" style="stop-color:#150E3C"/>
				<stop  offset="1" style="stop-color:#491E65"/>
			</linearGradient>
			<path class="st15" d="M223.1,182.5c-0.4,0-0.8-0.3-0.8-0.8v-9l-6.5-3.2c-0.4-0.2-0.5-0.6-0.4-1c0.2-0.4,0.6-0.5,1-0.4l6.9,3.4
				c0.3,0.1,0.4,0.4,0.4,0.7v9.5C223.9,182.1,223.5,182.5,223.1,182.5z"/>
		</g>
		<g>
			<linearGradient id="SVGID_16_" gradientUnits="userSpaceOnUse" x1="222.3365" y1="169.7221" x2="230.8197" y2="169.7221">
				<stop  offset="0" style="stop-color:#150E3C"/>
				<stop  offset="1" style="stop-color:#491E65"/>
			</linearGradient>
			<path class="st16" d="M230.1,178.5c-0.4,0-0.8-0.3-0.8-0.8v-12.1l-6.5-3.2c-0.4-0.2-0.5-0.6-0.4-1c0.2-0.4,0.6-0.5,1-0.4l6.9,3.4
				c0.3,0.1,0.4,0.4,0.4,0.7v12.6C230.8,178.1,230.5,178.5,230.1,178.5z"/>
		</g>
	</g>
	<g>
		<linearGradient id="SVGID_17_" gradientUnits="userSpaceOnUse" x1="7" y1="122.409" x2="28.5442" y2="122.409">
			<stop  offset="0" style="stop-color:#D12284"/>
			<stop  offset="1" style="stop-color:#EA63A5"/>
		</linearGradient>
		<path class="st17" d="M16.9,136.6c1.5-0.1,3.2-0.8,4.9-2.3c3.9-3.3,5.6-7.3,6.3-10.6c1-4.8-0.4-9.7-4-13.1c-1.9-1.8-4.4-3-7.2-2
			c-0.1,0-0.2,0.1-0.3,0.1c-0.9,0.3-1.7,0.8-2.5,1.3c-4.5,2.8-7.3,7.9-7.3,13.4l0,0.2C7.1,128.4,11,136.9,16.9,136.6z"/>
		<g>
			<linearGradient id="SVGID_18_" gradientUnits="userSpaceOnUse" x1="13.6046" y1="136.9658" x2="22.7799" y2="136.9658">
				<stop  offset="0" style="stop-color:#150E3C"/>
				<stop  offset="1" style="stop-color:#491E65"/>
			</linearGradient>
			<path class="st18" d="M22.3,139.6c-0.1,0-0.2,0-0.2-0.1l-8.2-4.2c-0.2-0.1-0.3-0.4-0.2-0.7c0.1-0.2,0.4-0.3,0.7-0.2l8.2,4.2
				c0.2,0.1,0.3,0.4,0.2,0.7C22.6,139.5,22.5,139.6,22.3,139.6z"/>
		</g>
		<g>
			<linearGradient id="SVGID_19_" gradientUnits="userSpaceOnUse" x1="24.353" y1="124.7887" x2="35.4875" y2="124.7887">
				<stop  offset="0" style="stop-color:#150E3C"/>
				<stop  offset="1" style="stop-color:#491E65"/>
			</linearGradient>
			<path class="st19" d="M24.9,127.3c-0.2,0-0.3-0.1-0.4-0.2c-0.2-0.2-0.1-0.5,0.1-0.7l5.4-4c0.2-0.1,0.4-0.1,0.5,0l4.8,2.4
				c0.2,0.1,0.3,0.4,0.2,0.7c-0.1,0.2-0.4,0.3-0.7,0.2l-4.5-2.3l-5.1,3.8C25.1,127.3,25,127.3,24.9,127.3z"/>
		</g>
		<g>
			<linearGradient id="SVGID_20_" gradientUnits="userSpaceOnUse" x1="24.5032" y1="117.2541" x2="35.1496" y2="117.2541">
				<stop  offset="0" style="stop-color:#150E3C"/>
				<stop  offset="1" style="stop-color:#491E65"/>
			</linearGradient>
			<path class="st20" d="M25,119.3c-0.2,0-0.3-0.1-0.4-0.2c-0.2-0.2-0.1-0.5,0.1-0.7l4.1-3c0.2-0.1,0.4-0.1,0.5,0l5.6,2.9
				c0.2,0.1,0.3,0.4,0.2,0.7c-0.1,0.2-0.4,0.3-0.7,0.2l-5.3-2.7l-3.8,2.9C25.2,119.3,25.1,119.3,25,119.3z"/>
		</g>
		<g>
			<linearGradient id="SVGID_21_" gradientUnits="userSpaceOnUse" x1="22.4709" y1="111.4425" x2="34.8944" y2="111.4425">
				<stop  offset="0" style="stop-color:#150E3C"/>
				<stop  offset="1" style="stop-color:#491E65"/>
			</linearGradient>
			<path class="st21" d="M34.4,113.8c-0.1,0-0.2,0-0.2-0.1l-7.1-3.6l-3.8,2.9c-0.2,0.2-0.5,0.1-0.7-0.1c-0.2-0.2-0.1-0.5,0.1-0.7
				l4.1-3c0.2-0.1,0.4-0.1,0.5,0l7.4,3.8c0.2,0.1,0.3,0.4,0.2,0.7C34.7,113.7,34.6,113.8,34.4,113.8z"/>
		</g>
		<linearGradient id="SVGID_22_" gradientUnits="userSpaceOnUse" x1="10.9791" y1="133.6475" x2="21.1513" y2="133.6475">
			<stop  offset="0" style="stop-color:#FFAC13"/>
			<stop  offset="1" style="stop-color:#FFE200"/>
		</linearGradient>
		<circle class="st22" cx="16.1" cy="133.6" r="5.1"/>
	</g>
</g>
</svg>
