<svg version="1.1" id="Layer_1" xmlns="http://www.w3.org/2000/svg" x="0" y="0" viewBox="0 0 1024 512" xml:space="preserve"><style>.st0{fill:#fff}.st1{fill:#f6d365}</style><path class="st0" d="M247.6 396H63l-53-53h290zM89.2 290.6H10L194.6 72h79.2z"/><path class="st1" d="M194.6 72L300 343l-52.4 53-96.2-273z"/><path class="st0" d="M374 232.5v149h-30v-149h-19v163.6h70V232.5z"/><path class="st1" d="M480 324.9h55v14.7h-55z"/><path class="st0" d="M599 233h21v163.1h-21z"/><path class="st1" d="M599 190.8h21v21.3h-21z"/><path class="st0" d="M704 190.8v187h-30v-187h-19v205.3h70V190.8z"/><path class="st1" d="M480 245.6h55v14.7h-55z"/><path class="st0" d="M450 190h21v206.1h-21zM545 190h21v206.1h-21z"/><path class="st1" d="M288 190h144v14.7H288z"/><path class="st0" d="M926.8 190l-50.5 115.7-51.1-115.4-89.8 206h30.7L825.4 260l20 43.8-28.1 62.8h41.4l18.2-41.4 18.2 41.4h43.1l-29.7-65.2 19.7-43.9 61.2 138.2 28.4-.1z"/><path class="st1" d="M817 381.3h120V396H817z"/></svg>