<?xml version="1.0" encoding="utf-8"?>
<!-- Generator: Adobe Illustrator 23.0.1, SVG Export Plug-In . SVG Version: 6.00 Build 0)  -->
<svg version="1.1" xmlns="http://www.w3.org/2000/svg" xmlns:xlink="http://www.w3.org/1999/xlink" x="0px" y="0px"
	 viewBox="0 0 1024 512" style="enable-background:new 0 0 1024 512;" xml:space="preserve">
<style type="text/css">
	.st0{display:none;}
	.st1{display:inline;fill:#400693;stroke:#000000;stroke-miterlimit:10;}
	.st2{fill:#C83660;}
	.st3{fill:#FFFFFF;}
	.st4{fill:#F6D365;}
</style>
<g id="helper">
	<g class="st0">
		<rect class="st1" width="1024" height="512"/>
	</g>
	<g>
		<path class="st2" d="M661,212L661,212c0,10.4-8.4,18.9-18.9,18.9l0,0c-10.4,0-18.9-8.4-18.9-18.9l0,0c0-10.4,8.4-18.9,18.9-18.9
			l0,0C652.6,193.2,661,201.6,661,212z"/>
		<rect x="482.3" y="212" class="st3" width="48.9" height="198.3"/>
		<polygon class="st3" points="492.4,128.2 843.5,128.2 779.7,168.8 428.7,168.8 		"/>
		<rect x="851.2" y="155.6" class="st3" width="48.9" height="254.7"/>
		<rect x="617.7" y="282.9" class="st4" width="48.9" height="127.4"/>
		<polygon class="st4" points="709.3,256 836.7,256 808.5,289.7 681.1,289.7 		"/>
	</g>
</g>
<g id="brand">
	<polygon class="st4" points="356.5,414.6 175.8,414.6 123.9,362.7 407.8,362.7 	"/>
	<polygon class="st3" points="201.5,311.4 123.9,311.4 304.6,97.4 382.2,97.4 	"/>
	<polygon class="st2" points="304.6,97.4 407.8,362.7 356.5,414.6 262.3,147.4 	"/>
</g>
</svg>
