<svg version="1.1" id="Layer_1" xmlns="http://www.w3.org/2000/svg" x="0" y="0" viewBox="0 0 64 128" xml:space="preserve"><style>.st0,.st1{opacity:.4;fill:#3a1f5d}.st1{fill:#5cfff3}.st2{opacity:.8;fill:#3a1f5d}</style><path class="st0" d="M11.8 2.3h6.7V9h-6.7zM11.8 13h6.7v6.7h-6.7zM11.8 23.7h6.7v6.7h-6.7zM11.8 34.3h6.7V41h-6.7zM11.8 45h6.7v6.7h-6.7z"/><path class="st1" d="M22.3 2.3H29V9h-6.7z"/><path class="st0" d="M22.3 13H29v6.7h-6.7zM22.3 23.7H29v6.7h-6.7z"/><path class="st1" d="M22.3 34.3H29V41h-6.7z"/><path class="st0" d="M22.3 45H29v6.7h-6.7zM32.7 2.3h6.7V9h-6.7z"/><path class="st1" d="M32.7 13h6.7v6.7h-6.7z"/><path class="st0" d="M32.7 23.7h6.7v6.7h-6.7zM32.7 34.3h6.7V41h-6.7zM32.7 45h6.7v6.7h-6.7z"/><path class="st2" d="M22.3 2.3H29V9h-6.7zM22.3 34.3H29V41h-6.7zM32.7 13h6.7v6.7h-6.7z"/><path d="M50.8 122.2H36.1c-.3 0-.6-.3-.6-.6s.3-.6.6-.6h14.1V38.3H36.1c-.3 0-.6-.3-.6-.6s.3-.6.6-.6h14.7c.3 0 .6.3.6.6v83.9c0 .4-.2.6-.6.6z" fill="#3a1f5d"/><g><path class="st0" d="M11.8 96.9h6.7v6.7h-6.7zM11.8 107.6h6.7v6.7h-6.7zM11.8 118.3h6.7v6.7h-6.7z"/><path class="st1" d="M22.3 96.9H29v6.7h-6.7z"/><path class="st0" d="M22.3 107.6H29v6.7h-6.7zM22.3 118.3H29v6.7h-6.7zM32.7 96.9h6.7v6.7h-6.7z"/><path class="st1" d="M32.7 107.6h6.7v6.7h-6.7z"/><path class="st0" d="M32.7 118.3h6.7v6.7h-6.7z"/><path class="st2" d="M22.3 96.9H29v6.7h-6.7zM32.7 107.6h6.7v6.7h-6.7z"/></g></svg>