<svg version="1.1" id="circles" xmlns="http://www.w3.org/2000/svg" x="0" y="0" viewBox="0 0 256 24" xml:space="preserve"><style>.st1,.st2,.st3{opacity:.95;fill:#3a1f5d}.st2,.st3{opacity:.9}.st3{opacity:.85}.st4,.st5,.st6{opacity:.8;fill:#3a1f5d}.st5,.st6{opacity:.75}.st6{opacity:.7}</style><path d="M127.8 17.7c-3.3 0-6-2.7-6-6s2.7-6 6-6 6 2.7 6 6-2.7 6-6 6z" fill="#4dfef8"/><path class="st1" d="M147.7 17.7c-3.3 0-6-2.7-6-6s2.7-6 6-6 6 2.7 6 6c-.1 3.3-2.7 6-6 6z"/><path class="st2" d="M167.5 17.7c-3.3 0-6-2.7-6-6s2.7-6 6-6 6 2.7 6 6-2.7 6-6 6z"/><path class="st3" d="M187.4 17.7c-3.3 0-6-2.7-6-6s2.7-6 6-6 6 2.7 6 6-2.7 6-6 6z"/><path class="st4" d="M207.3 17.7c-3.3 0-6-2.7-6-6s2.7-6 6-6 6 2.7 6 6-2.7 6-6 6z"/><path class="st5" d="M227.1 17.7c-3.3 0-6-2.7-6-6s2.7-6 6-6 6 2.7 6 6-2.6 6-6 6z"/><path class="st6" d="M247 17.7c-3.3 0-6-2.7-6-6s2.7-6 6-6 6 2.7 6 6-2.7 6-6 6z"/><g><path d="M127.8 5.8c3.3 0 6 2.7 6 6s-2.7 6-6 6-6-2.7-6-6c0-3.4 2.7-6 6-6z" fill="#3a1f5d"/><path class="st1" d="M107.9 5.8c3.3 0 6 2.7 6 6s-2.7 6-6 6-6-2.7-6-6c0-3.4 2.7-6 6-6z"/><path class="st2" d="M88 5.8c3.3 0 6 2.7 6 6s-2.7 6-6 6-6-2.7-6-6c.1-3.4 2.7-6 6-6z"/><path class="st3" d="M68.2 5.8c3.3 0 6 2.7 6 6s-2.7 6-6 6-6-2.7-6-6c0-3.4 2.7-6 6-6z"/><path class="st4" d="M48.3 5.8c3.3 0 6 2.7 6 6s-2.7 6-6 6-6-2.7-6-6c0-3.4 2.7-6 6-6z"/><path class="st5" d="M28.4 5.8c3.3 0 6 2.7 6 6s-2.7 6-6 6-6-2.7-6-6c.1-3.4 2.7-6 6-6z"/><path class="st6" d="M8.6 5.8c3.3 0 6 2.7 6 6s-2.7 6-6 6-6-2.7-6-6c0-3.4 2.7-6 6-6z"/></g></svg>