<svg xmlns="http://www.w3.org/2000/svg" viewBox="0 0 256 256"><path d="M97.5 253c0-4-.1-14.5-.2-28.6-46.7 10.1-56.6-22.5-56.6-22.5-7.6-19.4-18.6-24.6-18.6-24.6-15.2-10.4 1.2-10.2 1.2-10.2 16.9 1.2 25.7 17.3 25.7 17.3 15 25.7 39.3 18.3 48.9 14 1.5-10.9 5.9-18.3 10.7-22.5C71.2 171.7 32 157.3 32 93c0-18.3 6.5-33.3 17.3-45.1-1.7-4.2-7.5-21.3 1.6-44.4 0 0 14.1-4.5 46.2 17.2 13.4-3.7 27.8-5.6 42-5.7 14.3.1 28.6 1.9 42 5.7C213.2-1 227.2 3.5 227.2 3.5c9.2 23.1 3.4 40.2 1.7 44.4 10.8 11.7 17.3 26.7 17.3 45.1 0 64.5-39.3 78.7-76.7 82.9 6 5.2 11.4 15.4 11.4 31.1 0 22.5-.2 40.6-.2 46.1" fill-rule="evenodd" clip-rule="evenodd"/></svg>