<?xml version="1.0" encoding="utf-8"?>
<!-- Generator: Adobe Illustrator 23.0.1, SVG Export Plug-In . SVG Version: 6.00 Build 0)  -->
<svg version="1.1" id="github" xmlns="http://www.w3.org/2000/svg" xmlns:xlink="http://www.w3.org/1999/xlink" x="0px" y="0px"
	 viewBox="0 0 256 256" style="enable-background:new 0 0 256 256;" xml:space="preserve">
<style type="text/css">
	.st0{fill-rule:evenodd;clip-rule:evenodd;}
</style>
<path class="st0" d="M97.5,253c0-4-0.1-14.5-0.2-28.6c-46.7,10.1-56.6-22.5-56.6-22.5c-7.6-19.4-18.6-24.6-18.6-24.6
	c-15.2-10.4,1.2-10.2,1.2-10.2c16.9,1.2,25.7,17.3,25.7,17.3c15,25.7,39.3,18.3,48.9,14c1.5-10.9,5.9-18.3,10.7-22.5
	C71.2,171.7,32,157.3,32,93c0-18.3,6.5-33.3,17.3-45.1c-1.7-4.2-7.5-21.3,1.6-44.4c0,0,14.1-4.5,46.2,17.2c13.4-3.7,27.8-5.6,42-5.7
	c14.3,0.1,28.6,1.9,42,5.7c32.1-21.7,46.1-17.2,46.1-17.2c9.2,23.1,3.4,40.2,1.7,44.4c10.8,11.7,17.3,26.7,17.3,45.1
	c0,64.5-39.3,78.7-76.7,82.9c6,5.2,11.4,15.4,11.4,31.1c0,22.5-0.2,40.6-0.2,46.1"/>
</svg>
