<?xml version="1.0" encoding="utf-8"?>
<!-- Generator: Adobe Illustrator 23.0.1, SVG Export Plug-In . SVG Version: 6.00 Build 0)  -->
<svg version="1.1" id="network-lines" xmlns="http://www.w3.org/2000/svg" xmlns:xlink="http://www.w3.org/1999/xlink" x="0px"
	 y="0px" viewBox="0 0 512 512" style="enable-background:new 0 0 512 512;" xml:space="preserve">
<style type="text/css">
	.st0{opacity:0.8;}
</style>
<path class="st0" d="M497.8,73c-1.1-0.6-2.8-0.6-3.8,0c-0.8,0.5-1,1.1-0.6,1.7l-59.3,34.3l0,43.2l-14.5,8.3l0,47l-49.5,28.6
	l-7.7-4.5l38.2-22l0-25.8l-0.2-0.1L357,158.7V150l24.5-14.2c1.1,0.4,2.5,0.4,3.5-0.2c1.1-0.6,1.1-1.6,0-2.2c-1.1-0.6-2.8-0.6-3.8,0
	c-1,0.6-1,1.4-0.3,2l-24.5,14.2v9.4l0.2,0.1l43.4,25.1l0,25.1l-28.8,16.7l0-10.7l13.2-7.6c1.1,0.4,2.5,0.4,3.5-0.2
	c1.1-0.6,1.1-1.6,0-2.2c-1.1-0.6-2.8-0.6-3.8,0c-1,0.6-1,1.4-0.3,2l-13.2,7.6l0,11.4l-8.7,5l-10.3-6l0-18.7l19.5-11.2l0-12.9
	l-0.2-0.1l-41-23.7c0.8-0.6,0.7-1.5-0.3-2c-1.1-0.6-2.8-0.6-3.8,0c-1.1,0.6-1.1,1.6,0,2.2c1,0.6,2.4,0.6,3.5,0.2l41.1,23.7l0,12.2
	L351.5,206l0-12.9l-0.2-0.1l-25.1-14.5c0.8-0.6,0.7-1.5-0.3-2c-1.1-0.6-2.8-0.6-3.8,0c-1.1,0.6-1.1,1.6,0,2.2c1,0.6,2.4,0.6,3.5,0.2
	l25.2,14.6l0,31.6l-7.2-4.2l-11.9,6.9l-10.8-6.2l0-15.2l-0.2-0.1l-28.6-16.5l0-14.3c0.6,0,1.2-0.2,1.6-0.4c1.1-0.6,1.1-1.6,0-2.2
	c-1.1-0.6-2.8-0.6-3.8,0c-1.1,0.6-1.1,1.6,0,2.2c0.5,0.3,1,0.4,1.6,0.4l0,14.7l0.2,0.1l28.6,16.5l0,14.5l-46.5-26.9l0-28.5
	l25.2-14.6l23.2,0l0.1,0l39.7-22.9c1.1,0.4,2.5,0.4,3.5-0.2c1.1-0.6,1.1-1.6,0-2.2c-1.1-0.6-2.8-0.6-3.8,0c-1,0.6-1,1.4-0.3,2
	l-39.4,22.7l-21.9,0l73-42.1c1.1,0.4,2.5,0.4,3.5-0.2c1.1-0.6,1.1-1.6,0-2.2c-1.1-0.6-2.8-0.6-3.8,0c-1,0.6-1,1.4-0.3,2l-99.3,57.3
	l0,29.2l0.2,0.1l57.8,33.4l-11.6,6.7l-98.7-57l0-34l-0.2-0.1L187,124.4c0.8-0.6,0.7-1.5-0.3-2c-1.1-0.6-2.8-0.6-3.8,0
	c-1.1,0.6-1.1,1.6,0,2.2c1,0.6,2.4,0.6,3.5,0.2l33.7,19.5l0,34l0.2,0.1l98.5,56.9l-11.1,6.4l-97.6-56.3l-58.2,0l-36.4-21l0-32.3
	c0.4-0.1,0.7-0.2,1.1-0.4c1.1-0.6,1.1-1.6,0-2.2c-1.1-0.6-2.8-0.6-3.8,0c-1.1,0.6-1.1,1.6,0,2.2c0.6,0.3,1.4,0.5,2.2,0.4l0,32.5
	l0.2,0.1l36.7,21.2l58.2,0l82.4,47.6l-16.6,0l-28.1-16.2H226l-0.1,0l-30,17.3c-1.1-0.4-2.5-0.4-3.5,0.2c-1.1,0.6-1.1,1.6,0,2.2
	c1.1,0.6,2.8,0.6,3.8,0c1-0.6,1-1.4,0.3-2l29.7-17.1h21.3l28.1,16.2l17.8,0l13.7,7.9l-29.6,17.1l-8.4-4.9v-12.7L247.8,229
	c0.8-0.6,0.7-1.5-0.3-2c-1.1-0.6-2.8-0.6-3.8,0c-1.1,0.6-1.1,1.6,0,2.2c1,0.6,2.4,0.6,3.5,0.2l21.4,12.3v12l-22.8-13.1H235l-0.1,0
	l-12.9,7.4c-1.1-0.4-2.5-0.4-3.5,0.2c-1.1,0.6-1.1,1.6,0,2.2c1.1,0.6,2.8,0.6,3.8,0c1-0.6,1-1.4,0.3-2l12.5-7.2h10.5l31.3,18.1
	l-5.7,3.3l18.2,10.5l-8.5,4.9h-12.9l-9.2-5.3c0.7-0.6,0.6-1.5-0.3-2c-1.1-0.6-2.8-0.6-3.8,0c-1.1,0.6-1.1,1.6,0,2.2
	c1,0.6,2.5,0.6,3.5,0.1l9.6,5.6h12l-21.7,12.5l-51-29.5l-36.7,0l-0.1,0l-20.7,11.9c-1.1-0.4-2.5-0.4-3.5,0.2c-1.1,0.6-1.1,1.6,0,2.2
	c1.1,0.6,2.8,0.6,3.8,0c1-0.6,1-1.4,0.3-2l20.3-11.7l36.4,0l39.4,22.7h-16.9l-16.5-9.5c0.8-0.6,0.7-1.5-0.3-2
	c-1.1-0.6-2.8-0.6-3.8,0c-1.1,0.6-1.1,1.6,0,2.2c1,0.6,2.4,0.6,3.5,0.2l16.9,9.8h18.1l10.2,5.9l-25.9,15l-82.8,0l-64.3-37.2
	c0.8-0.6,0.7-1.5-0.3-2c-1.1-0.6-2.8-0.6-3.8,0c-1.1,0.6-1.1,1.6,0,2.2c1,0.6,2.4,0.6,3.5,0.2l64.8,37.4l81.9,0l-10.3,5.9l-61.3,0
	l-0.1,0l-30.2,17.5c-1.1-0.4-2.5-0.4-3.5,0.2c-1.1,0.6-1.1,1.6,0,2.2c1.1,0.6,2.8,0.6,3.8,0c1-0.6,1-1.4,0.3-2l29.9-17.2l61.3,0
	l0.1,0l69.5-40.1l7.7,4.5l-73.1,42.2h-53.4l-0.1,0l-64.5,37.3l-89.4,0L0,347.4v0.7l17.1,9.9l89.7,0l0.1,0l40.5-23.4l0,13.8
	l-26.7,15.4c-1.1-0.4-2.5-0.4-3.5,0.2c-1.1,0.6-1.1,1.6,0,2.2c1.1,0.6,2.8,0.6,3.8,0c1-0.6,1-1.4,0.3-2l26.7-15.4l0-14.5h-0.1
	l23.6-13.6h53.4l0.1,0l73.4-42.4l8.8,5.1l-142.5,82.3l0,14.9h0.6l0-14.5l142.5-82.3l10.8,6.3l-73.5,42.4l0,7.6l-13,7.5v17.4
	l-25.3,14.6c-1.1-0.4-2.5-0.4-3.5,0.2c-0.4,0.2-0.6,0.5-0.7,0.8h5.3c-0.1-0.2-0.2-0.4-0.4-0.6l25.3-14.6v-17.4l12.4-7.2l0,27.9
	l7.3,4.2l-13.2,7.6h1.2l12.6-7.3l12.6,7.3h1.2l-21.2-12.2l0-35.5l73.5-42.4l9.9,5.7l-52,30c-1.1-0.4-2.5-0.4-3.5,0.2
	c-1.1,0.6-1.1,1.6,0,2.2c1.1,0.6,2.8,0.6,3.8,0c1-0.6,1-1.4,0.3-2l52-30l9.5,5.5l-62.2,35.9H260c-0.1-0.3-0.3-0.6-0.7-0.8
	c-1.1-0.6-2.8-0.6-3.8,0c-1.1,0.6-1.1,1.6,0,2.2c1.1,0.6,2.8,0.6,3.8,0c0.4-0.2,0.6-0.5,0.7-0.8h17.1l0.1,0l62.6-36.1l3.8,2.2l3-1.7
	l14.9,8.6l0,12l-12.3,7.1v0h-19.3l-0.1,0l-21.2,12.2c-1.1-0.4-2.5-0.4-3.5,0.2c-1.1,0.6-1.1,1.6,0,2.2c1.1,0.6,2.8,0.6,3.8,0
	c1-0.6,1-1.4,0.3-2l20.8-12h18.2l-36.2,20.9c-1.1-0.5-2.6-0.4-3.6,0.1c-1.1,0.6-1.1,1.6,0,2.2c1.1,0.6,2.8,0.6,3.8,0
	c0.9-0.5,1-1.4,0.3-2l45.2-26.1l0,5.8l-26.9,15.5v11L309,370.9c-1.1-0.4-2.5-0.4-3.5,0.2c-1.1,0.6-1.1,1.6,0,2.2
	c1.1,0.6,2.8,0.6,3.8,0c1-0.6,1-1.4,0.3-2l21.9-12.6v-11l26.9-15.5l0-6.5l3.8-2.2l0-12.7l-14.9-8.6l9.8-5.7l30.7,17.7l0,20.1
	l-20.8,12c-1.1-0.5-2.6-0.4-3.6,0.1c-1.1,0.6-1.1,1.6,0,2.2c1.1,0.6,2.8,0.6,3.8,0c0.9-0.5,1-1.4,0.3-2l20.2-11.7l0,16.3l-16,9.2
	l0,19.7h0.6l0-19.4l15.4-8.9l0,28.3h0.6l0-66.4l-30.7-17.7l11-6.4l40.1,23.1l0,55.1l19.3,11.1l0,1.1h0.6l0-1.4l-19.3-11.1l0-55.1
	l-40.1-23.1l8.2-4.7l54.1,31.2l0,47l29.9,17.3h1.2L432,362.8l0-47l-54.1-31.2l13.2-7.6l90,52l0,23.4l30.8,17.8v-0.7l-30.2-17.5
	l0-23.4l-50.6-29.2h40l40.8,23.6v-0.7l-40.7-23.5h-41.3l-38.3-22.1l15.4-8.9l33,19l52.9,0l19,11V297l-4.2-2.4l4.2,0V294l-5.2,0
	l-13.7-7.9l-52.9,0l-9.2-5.3h22.5l0.1,0l11.3-6.5l47,0l0.2,0.1v-0.7l-46.1,0l12.7-7.3c1.1,0.4,2.5,0.4,3.5-0.2
	c1.1-0.6,1.1-1.6,0-2.2c-1.1-0.6-2.8-0.6-3.8,0c-1,0.6-1,1.4-0.3,2l-24.7,14.2h-23.4l-22.2-12.8l8.2-4.7l-5.3-3.1H426l20.1,11.6
	c-0.8,0.6-0.7,1.5,0.3,2c1.1,0.6,2.8,0.6,3.8,0c1.1-0.6,1.1-1.6,0-2.2c-1-0.6-2.4-0.6-3.5-0.2l-20.5-11.9h-16.6l-11.2-6.5l6.9-4
	h12.3l10.8-6.2h8l18.2,10.5c-0.8,0.6-0.7,1.5,0.2,2.1c1.1,0.6,2.8,0.6,3.8,0c1.1-0.6,1.1-1.6,0-2.2c-0.9-0.5-2.4-0.6-3.4-0.2
	l-18.6-10.8h-8.4l-10.8,6.2h-11.1l22.1-12.8h11.9l24.9,14.4l46.8,0v-0.6l-46.6,0l-24.9-14.4h-12.3l-0.1,0l-30.4,17.6l-8-4.6
	l34.4-19.9l24.3,0l20,11.6l43.6,0v-0.6l-43.4,0l-19-11l62.4,0V227l-88,0l-0.1,0l-34.8,20.1l-9.1-5.2l48-27.7l84,0v-0.6l-61.2,0
	l61.2-35.3v-0.7l-62.4,36l-21.1,0l45.5-26.3v-5.8l21.8-12.6c1.1,0.4,2.5,0.4,3.5-0.2c1.1-0.6,1.1-1.6,0-2.2c-1.1-0.6-2.8-0.6-3.8,0
	c-1,0.6-1,1.4-0.3,2l-11.9,6.8l0-15.9L512,143v-0.7l-29.3,16.9l0,16.6l-9.3,5.4v5.8l-45.9,26.5l0.2,0.3l-48.2,27.8l-8.8-5.1
	l49.5-28.6l0-47l91.8-53v-0.7l-77.3,44.7l0-42.5l59.2-34.2c0,0,0.1,0.1,0.1,0.1c1.1,0.6,2.8,0.6,3.8,0
	C498.9,74.6,498.9,73.6,497.8,73z M414.7,262.6l-71.1,41.1l-71.1-41.1l71.1-41.1L414.7,262.6z"/>
</svg>
