<svg xmlns="http://www.w3.org/2000/svg" viewBox="0 0 512 512"><path d="M497.8 73c-1.1-.6-2.8-.6-3.8 0-.8.5-1 1.1-.6 1.7L434.1 109v43.2l-14.5 8.3v47l-49.5 28.6-7.7-4.5 38.2-22v-25.8l-.2-.1-43.4-25V150l24.5-14.2c1.1.4 2.5.4 3.5-.2 1.1-.6 1.1-1.6 0-2.2-1.1-.6-2.8-.6-3.8 0s-1 1.4-.3 2l-24.5 14.2v9.4l.2.1 43.4 25.1v25.1L371.2 226v-10.7l13.2-7.6c1.1.4 2.5.4 3.5-.2 1.1-.6 1.1-1.6 0-2.2-1.1-.6-2.8-.6-3.8 0s-1 1.4-.3 2l-13.2 7.6v11.4l-8.7 5-10.3-6v-18.7l19.5-11.2v-12.9l-.2-.1-41-23.7c.8-.6.7-1.5-.3-2-1.1-.6-2.8-.6-3.8 0-1.1.6-1.1 1.6 0 2.2 1 .6 2.4.6 3.5.2l41.1 23.7V195l-18.9 11v-12.9l-.2-.1-25.1-14.5c.8-.6.7-1.5-.3-2-1.1-.6-2.8-.6-3.8 0-1.1.6-1.1 1.6 0 2.2 1 .6 2.4.6 3.5.2l25.2 14.6v31.6l-7.2-4.2-11.9 6.9-10.8-6.2v-15.2l-.2-.1-28.6-16.5v-14.3c.6 0 1.2-.2 1.6-.4 1.1-.6 1.1-1.6 0-2.2-1.1-.6-2.8-.6-3.8 0-1.1.6-1.1 1.6 0 2.2.5.3 1 .4 1.6.4v14.7l.2.1 28.6 16.5v14.5l-46.5-26.9v-28.5l25.2-14.6h23.3l39.7-22.9c1.1.4 2.5.4 3.5-.2 1.1-.6 1.1-1.6 0-2.2-1.1-.6-2.8-.6-3.8 0s-1 1.4-.3 2L322 150.7h-21.9l73-42.1c1.1.4 2.5.4 3.5-.2 1.1-.6 1.1-1.6 0-2.2-1.1-.6-2.8-.6-3.8 0s-1 1.4-.3 2l-99.3 57.3v29.2l.2.1 57.8 33.4-11.6 6.7-98.7-57v-34l-.2-.1-33.7-19.4c.8-.6.7-1.5-.3-2-1.1-.6-2.8-.6-3.8 0-1.1.6-1.1 1.6 0 2.2 1 .6 2.4.6 3.5.2l33.7 19.5v34l.2.1 98.5 56.9-11.1 6.4-97.6-56.3h-58.2l-36.4-21v-32.3c.4-.1.7-.2 1.1-.4 1.1-.6 1.1-1.6 0-2.2-1.1-.6-2.8-.6-3.8 0-1.1.6-1.1 1.6 0 2.2.6.3 1.4.5 2.2.4v32.5l.2.1 36.7 21.2h58.2l82.4 47.6h-16.6l-28.1-16.2H225.9l-30 17.3c-1.1-.4-2.5-.4-3.5.2-1.1.6-1.1 1.6 0 2.2 1.1.6 2.8.6 3.8 0s1-1.4.3-2l29.7-17.1h21.3l28.1 16.2h17.8l13.7 7.9-29.6 17.1-8.4-4.9v-12.7L247.8 229c.8-.6.7-1.5-.3-2-1.1-.6-2.8-.6-3.8 0-1.1.6-1.1 1.6 0 2.2 1 .6 2.4.6 3.5.2l21.4 12.3v12l-22.8-13.1h-10.9L222 248c-1.1-.4-2.5-.4-3.5.2-1.1.6-1.1 1.6 0 2.2 1.1.6 2.8.6 3.8 0s1-1.4.3-2l12.5-7.2h10.5l31.3 18.1-5.7 3.3 18.2 10.5-8.5 4.9H268l-9.2-5.3c.7-.6.6-1.5-.3-2-1.1-.6-2.8-.6-3.8 0-1.1.6-1.1 1.6 0 2.2 1 .6 2.5.6 3.5.1l9.6 5.6h12l-21.7 12.5-51-29.5H170.3l-20.7 11.9c-1.1-.4-2.5-.4-3.5.2-1.1.6-1.1 1.6 0 2.2 1.1.6 2.8.6 3.8 0s1-1.4.3-2l20.3-11.7h36.4l39.4 22.7h-16.9l-16.5-9.5c.8-.6.7-1.5-.3-2-1.1-.6-2.8-.6-3.8 0-1.1.6-1.1 1.6 0 2.2 1 .6 2.4.6 3.5.2l16.9 9.8h18.1l10.2 5.9-25.9 15h-82.8l-64.3-37.2c.8-.6.7-1.5-.3-2-1.1-.6-2.8-.6-3.8 0-1.1.6-1.1 1.6 0 2.2 1 .6 2.4.6 3.5.2l64.8 37.4h81.9l-10.3 5.9h-61.4l-30.2 17.5c-1.1-.4-2.5-.4-3.5.2-1.1.6-1.1 1.6 0 2.2 1.1.6 2.8.6 3.8 0s1-1.4.3-2l29.9-17.2h61.4l69.5-40.1 7.7 4.5-73.1 42.2h-53.5l-64.5 37.3H17.3L0 347.4v.7l17.1 9.9h89.8l40.5-23.4v13.8l-26.7 15.4c-1.1-.4-2.5-.4-3.5.2-1.1.6-1.1 1.6 0 2.2 1.1.6 2.8.6 3.8 0s1-1.4.3-2l26.7-15.4v-14.5h-.1l23.6-13.6H225l73.4-42.4 8.8 5.1-142.5 82.3v14.9h.6v-14.5l142.5-82.3 10.8 6.3-73.5 42.4v7.6l-13 7.5V365l-25.3 14.6c-1.1-.4-2.5-.4-3.5.2-.4.2-.6.5-.7.8h5.3c-.1-.2-.2-.4-.4-.6l25.3-14.6V348l12.4-7.2v27.9l7.3 4.2-13.2 7.6h1.2l12.6-7.3 12.6 7.3h1.2l-21.2-12.2v-35.5l73.5-42.4 9.9 5.7-52 30c-1.1-.4-2.5-.4-3.5.2-1.1.6-1.1 1.6 0 2.2 1.1.6 2.8.6 3.8 0s1-1.4.3-2l52-30 9.5 5.5-62.2 35.9h-17c-.1-.3-.3-.6-.7-.8-1.1-.6-2.8-.6-3.8 0-1.1.6-1.1 1.6 0 2.2 1.1.6 2.8.6 3.8 0 .4-.2.6-.5.7-.8H277.2l62.6-36.1 3.8 2.2 3-1.7 14.9 8.6v12l-12.3 7.1H329.8l-21.2 12.2c-1.1-.4-2.5-.4-3.5.2-1.1.6-1.1 1.6 0 2.2 1.1.6 2.8.6 3.8 0s1-1.4.3-2l20.8-12h18.2L312 352.1c-1.1-.5-2.6-.4-3.6.1-1.1.6-1.1 1.6 0 2.2 1.1.6 2.8.6 3.8 0 .9-.5 1-1.4.3-2l45.2-26.1v5.8l-26.9 15.5v11L309 370.9c-1.1-.4-2.5-.4-3.5.2-1.1.6-1.1 1.6 0 2.2 1.1.6 2.8.6 3.8 0s1-1.4.3-2l21.9-12.6v-11l26.9-15.5v-6.5l3.8-2.2v-12.7l-14.9-8.6 9.8-5.7 30.7 17.7v20.1l-20.8 12c-1.1-.5-2.6-.4-3.6.1-1.1.6-1.1 1.6 0 2.2 1.1.6 2.8.6 3.8 0 .9-.5 1-1.4.3-2l20.2-11.7v16.3l-16 9.2v19.7h.6v-19.4l15.4-8.9v28.3h.6v-66.4L357.6 296l11-6.4 40.1 23.1v55.1l19.3 11.1v1.1h.6v-1.4l-19.3-11.1v-55.1l-40.1-23.1 8.2-4.7 54.1 31.2v47l29.9 17.3h1.2L432 362.8v-47l-54.1-31.2 13.2-7.6 90 52v23.4l30.8 17.8v-.7L481.7 352v-23.4l-50.6-29.2h40l40.8 23.6v-.7l-40.7-23.5h-41.3l-38.3-22.1 15.4-8.9 33 19h52.9l19 11v-.8l-4.2-2.4h4.2v-.6h-5.2l-13.7-7.9h-52.9l-9.2-5.3h22.6l11.3-6.5h47l.2.1v-.7h-46.1l12.7-7.3c1.1.4 2.5.4 3.5-.2 1.1-.6 1.1-1.6 0-2.2-1.1-.6-2.8-.6-3.8 0s-1 1.4-.3 2l-24.7 14.2h-23.4l-22.2-12.8 8.2-4.7-5.3-3.1H426l20.1 11.6c-.8.6-.7 1.5.3 2 1.1.6 2.8.6 3.8 0 1.1-.6 1.1-1.6 0-2.2-1-.6-2.4-.6-3.5-.2l-20.5-11.9h-16.6l-11.2-6.5 6.9-4h12.3l10.8-6.2h8l18.2 10.5c-.8.6-.7 1.5.2 2.1 1.1.6 2.8.6 3.8 0 1.1-.6 1.1-1.6 0-2.2-.9-.5-2.4-.6-3.4-.2l-18.6-10.8h-8.4l-10.8 6.2h-11.1l22.1-12.8h11.9l24.9 14.4H512v-.6h-46.6l-24.9-14.4h-12.4L397.7 252l-8-4.6 34.4-19.9h24.3l20 11.6H512v-.6h-43.4l-19-11H512v-.5h-88.1l-34.8 20.1-9.1-5.2 48-27.7h84v-.6h-61.2l61.2-35.3v-.7l-62.4 36h-21.1l45.5-26.3v-5.8l21.8-12.6c1.1.4 2.5.4 3.5-.2 1.1-.6 1.1-1.6 0-2.2-1.1-.6-2.8-.6-3.8 0s-1 1.4-.3 2l-11.9 6.8v-15.9L512 143v-.7l-29.3 16.9v16.6l-9.3 5.4v5.8l-45.9 26.5.2.3-48.2 27.8-8.8-5.1 49.5-28.6v-47l91.8-53v-.7l-77.3 44.7v-42.5l59.2-34.2.1.1c1.1.6 2.8.6 3.8 0 1.1-.7 1.1-1.7 0-2.3zm-83.1 189.6l-71.1 41.1-71.1-41.1 71.1-41.1 71.1 41.1z" opacity=".8"/></svg>