<?xml version="1.0" encoding="utf-8"?>
<!-- Generator: Adobe Illustrator 23.0.1, SVG Export Plug-In . SVG Version: 6.00 Build 0)  -->
<svg version="1.1" id="Layer_1" xmlns="http://www.w3.org/2000/svg" xmlns:xlink="http://www.w3.org/1999/xlink" x="0px" y="0px"
	 viewBox="0 0 256 256" style="enable-background:new 0 0 256 256;" xml:space="preserve">
<style type="text/css">
	.st0{fill:url(#SVGID_1_);}
	.st1{fill:url(#SVGID_2_);}
	.st2{fill:url(#SVGID_3_);}
	.st3{fill:url(#SVGID_4_);}
	.st4{fill:url(#SVGID_5_);}
	.st5{fill:url(#SVGID_6_);}
	.st6{fill:url(#SVGID_7_);}
	.st7{fill:url(#SVGID_8_);}
	.st8{fill:url(#SVGID_9_);}
	.st9{fill:url(#SVGID_10_);}
	.st10{fill:url(#SVGID_11_);}
	.st11{fill:url(#SVGID_12_);}
	.st12{fill:url(#SVGID_13_);}
	.st13{fill:url(#SVGID_14_);}
	.st14{fill:url(#SVGID_15_);}
	.st15{fill:url(#SVGID_16_);}
	.st16{fill:url(#SVGID_17_);}
	.st17{fill:url(#SVGID_18_);}
	.st18{fill:url(#SVGID_19_);}
	.st19{fill:url(#SVGID_20_);}
	.st20{fill:url(#SVGID_21_);}
	.st21{fill:url(#SVGID_22_);}
	.st22{fill:url(#SVGID_23_);}
	.st23{fill:#F7F7F7;}
	.st24{fill:#FFFFFF;}
	.st25{fill:url(#SVGID_24_);}
	.st26{fill:#063654;}
	.st27{fill:#FF4B5F;}
	.st28{fill:url(#SVGID_25_);}
</style>
<g>
	<linearGradient id="SVGID_1_" gradientUnits="userSpaceOnUse" x1="2.9689" y1="106.8984" x2="24.6641" y2="106.8984">
		<stop  offset="0" style="stop-color:#150E3C"/>
		<stop  offset="1" style="stop-color:#491E65"/>
	</linearGradient>
	<path class="st0" d="M22,105l2.7,1.6l-10.6,6.1l-2.7-1.6l3.7-2.1l-6.8-3.9c0,0.2,0,0.4-0.2,0.7c-0.2,0.3-0.3,0.6-0.6,0.9
		c-0.2,0.3-0.5,0.6-0.8,0.9c-0.3,0.3-0.6,0.6-1,0.7L3,106.8c0.3-0.2,0.6-0.4,0.9-0.8c0.3-0.4,0.5-0.7,0.7-1.1
		c0.2-0.4,0.3-0.7,0.4-1.1c0.1-0.3,0.1-0.5,0.1-0.7l3.6-2.1l10,5.8L22,105z"/>
	<linearGradient id="SVGID_2_" gradientUnits="userSpaceOnUse" x1="23.3138" y1="94.2361" x2="42.6124" y2="94.2361">
		<stop  offset="0" style="stop-color:#150E3C"/>
		<stop  offset="1" style="stop-color:#491E65"/>
	</linearGradient>
	<path class="st1" d="M39.7,90.4c1,0.6,1.7,1.2,2.2,1.9c0.5,0.7,0.7,1.4,0.7,2c0,0.7-0.2,1.4-0.7,2c-0.5,0.7-1.2,1.3-2.2,1.8
		c-1,0.6-2,1-3.2,1.3c-1.2,0.3-2.3,0.4-3.5,0.4c-1.2,0-2.4-0.1-3.5-0.4c-1.2-0.3-2.2-0.7-3.2-1.3c-1-0.6-1.7-1.2-2.2-1.9
		c-0.5-0.7-0.7-1.4-0.7-2c0-0.7,0.2-1.4,0.7-2c0.5-0.7,1.2-1.3,2.2-1.8c1-0.6,2-1,3.2-1.2c1.2-0.3,2.3-0.4,3.5-0.4
		c1.2,0,2.4,0.1,3.5,0.4C37.6,89.4,38.7,89.8,39.7,90.4z M36.2,92.4c-0.6-0.3-1.2-0.6-1.9-0.8c-0.7-0.2-1.3-0.3-1.9-0.4
		c-0.6,0-1.3,0-1.8,0.1c-0.6,0.1-1.1,0.3-1.6,0.6c-0.5,0.3-0.8,0.6-1,0.9c-0.2,0.3-0.3,0.7-0.2,1.1c0.1,0.4,0.3,0.7,0.6,1.1
		c0.3,0.4,0.8,0.7,1.4,1.1c0.6,0.3,1.2,0.6,1.9,0.8c0.6,0.2,1.3,0.3,1.9,0.4c0.6,0,1.3,0,1.8-0.1c0.6-0.1,1.1-0.3,1.6-0.6
		c0.5-0.3,0.8-0.6,1-0.9c0.2-0.3,0.3-0.7,0.2-1.1c-0.1-0.4-0.3-0.7-0.6-1.1C37.2,93.1,36.8,92.7,36.2,92.4z"/>
	<linearGradient id="SVGID_3_" gradientUnits="userSpaceOnUse" x1="44.237" y1="83.0722" x2="65.9323" y2="83.0722">
		<stop  offset="0" style="stop-color:#150E3C"/>
		<stop  offset="1" style="stop-color:#491E65"/>
	</linearGradient>
	<path class="st2" d="M63.2,81.2l2.7,1.6l-10.6,6.1l-2.7-1.6l3.7-2.1l-6.8-3.9c0,0.2,0,0.4-0.2,0.7c-0.2,0.3-0.3,0.6-0.6,0.9
		c-0.2,0.3-0.5,0.6-0.8,0.9c-0.3,0.3-0.6,0.6-1,0.7L44.2,83c0.3-0.2,0.6-0.4,0.9-0.8c0.3-0.4,0.5-0.7,0.7-1.1
		c0.2-0.4,0.3-0.7,0.4-1.1c0.1-0.3,0.1-0.5,0.1-0.7l3.6-2.1l10,5.8L63.2,81.2z"/>
	<linearGradient id="SVGID_4_" gradientUnits="userSpaceOnUse" x1="63.3118" y1="72.0596" x2="85.007" y2="72.0596">
		<stop  offset="0" style="stop-color:#150E3C"/>
		<stop  offset="1" style="stop-color:#491E65"/>
	</linearGradient>
	<path class="st3" d="M82.3,70.2l2.7,1.6l-10.6,6.1l-2.7-1.6l3.7-2.1l-6.8-3.9c0,0.2,0,0.4-0.2,0.7c-0.2,0.3-0.3,0.6-0.6,0.9
		c-0.2,0.3-0.5,0.6-0.8,0.9c-0.3,0.3-0.6,0.6-1,0.7L63.3,72c0.3-0.2,0.6-0.4,0.9-0.8c0.3-0.4,0.5-0.7,0.7-1.1
		c0.2-0.4,0.3-0.7,0.4-1.1c0.1-0.3,0.1-0.5,0.1-0.7l3.6-2.1l10,5.8L82.3,70.2z"/>
	<linearGradient id="SVGID_5_" gradientUnits="userSpaceOnUse" x1="83.6567" y1="59.3973" x2="102.9553" y2="59.3973">
		<stop  offset="0" style="stop-color:#150E3C"/>
		<stop  offset="1" style="stop-color:#491E65"/>
	</linearGradient>
	<path class="st4" d="M100,55.5c1,0.6,1.7,1.2,2.2,1.9c0.5,0.7,0.7,1.4,0.7,2c0,0.7-0.2,1.4-0.7,2c-0.5,0.7-1.2,1.3-2.2,1.8
		c-1,0.6-2,1-3.2,1.3c-1.1,0.3-2.3,0.4-3.5,0.4c-1.2,0-2.4-0.1-3.5-0.4c-1.2-0.3-2.2-0.7-3.2-1.3c-1-0.6-1.7-1.2-2.2-1.9
		c-0.5-0.7-0.7-1.4-0.7-2c0-0.7,0.2-1.4,0.7-2c0.5-0.7,1.2-1.3,2.2-1.8c1-0.6,2-1,3.2-1.2c1.2-0.3,2.3-0.4,3.5-0.4
		c1.2,0,2.4,0.1,3.5,0.4C98,54.5,99,55,100,55.5z M96.5,57.6c-0.6-0.3-1.2-0.6-1.9-0.8c-0.7-0.2-1.3-0.3-1.9-0.4
		c-0.6,0-1.3,0-1.8,0.1c-0.6,0.1-1.1,0.3-1.6,0.6c-0.5,0.3-0.8,0.6-1,0.9c-0.2,0.3-0.3,0.7-0.2,1.1c0.1,0.4,0.3,0.7,0.6,1.1
		c0.3,0.4,0.8,0.7,1.4,1.1c0.6,0.3,1.2,0.6,1.9,0.8c0.6,0.2,1.3,0.3,1.9,0.4c0.6,0,1.3,0,1.8-0.1c0.6-0.1,1.1-0.3,1.6-0.6
		c0.5-0.3,0.8-0.6,1-0.9c0.2-0.3,0.3-0.7,0.2-1.1c-0.1-0.4-0.3-0.7-0.6-1.1C97.6,58.3,97.1,57.9,96.5,57.6z"/>
	<linearGradient id="SVGID_6_" gradientUnits="userSpaceOnUse" x1="104.5799" y1="48.2334" x2="126.2751" y2="48.2334">
		<stop  offset="0" style="stop-color:#150E3C"/>
		<stop  offset="1" style="stop-color:#491E65"/>
	</linearGradient>
	<path class="st5" d="M123.6,46.4l2.7,1.6L115.7,54l-2.7-1.6l3.7-2.1l-6.8-3.9c0,0.2,0,0.4-0.2,0.7c-0.2,0.3-0.3,0.6-0.6,0.9
		c-0.2,0.3-0.5,0.6-0.8,0.9c-0.3,0.3-0.6,0.6-1,0.7l-2.8-1.6c0.3-0.2,0.6-0.4,0.9-0.8c0.3-0.4,0.5-0.7,0.7-1.1
		c0.2-0.4,0.3-0.7,0.4-1.1c0.1-0.3,0.1-0.5,0.1-0.7l3.6-2.1l10,5.8L123.6,46.4z"/>
	<linearGradient id="SVGID_7_" gradientUnits="userSpaceOnUse" x1="124.9248" y1="35.5711" x2="144.2234" y2="35.5711">
		<stop  offset="0" style="stop-color:#150E3C"/>
		<stop  offset="1" style="stop-color:#491E65"/>
	</linearGradient>
	<path class="st6" d="M141.3,31.7c1,0.6,1.7,1.2,2.2,1.9c0.5,0.7,0.7,1.4,0.7,2c0,0.7-0.2,1.4-0.7,2c-0.5,0.7-1.2,1.3-2.2,1.8
		c-1,0.6-2,1-3.2,1.3c-1.2,0.3-2.3,0.4-3.5,0.4c-1.2,0-2.4-0.1-3.5-0.4c-1.2-0.3-2.2-0.7-3.2-1.3c-1-0.6-1.7-1.2-2.2-1.9
		c-0.5-0.7-0.7-1.4-0.7-2c0-0.7,0.2-1.4,0.7-2c0.5-0.7,1.2-1.3,2.2-1.8c1-0.5,2-1,3.2-1.2c1.2-0.3,2.3-0.4,3.5-0.4
		c1.2,0,2.4,0.1,3.5,0.4C139.2,30.7,140.3,31.1,141.3,31.7z M137.8,33.7c-0.6-0.3-1.2-0.6-1.9-0.8c-0.7-0.2-1.3-0.3-1.9-0.4
		c-0.6,0-1.3,0-1.8,0.1c-0.6,0.1-1.1,0.3-1.6,0.6c-0.5,0.3-0.8,0.6-1,0.9c-0.2,0.3-0.3,0.7-0.2,1.1c0.1,0.4,0.3,0.7,0.6,1.1
		c0.3,0.4,0.8,0.7,1.4,1.1c0.6,0.3,1.2,0.6,1.9,0.8c0.6,0.2,1.3,0.3,1.9,0.4c0.6,0,1.3,0,1.8-0.1c0.6-0.1,1.1-0.3,1.6-0.6
		c0.5-0.3,0.8-0.6,1-0.9c0.2-0.3,0.3-0.7,0.2-1.1c-0.1-0.4-0.3-0.7-0.6-1.1C138.8,34.4,138.4,34.1,137.8,33.7z"/>
	<linearGradient id="SVGID_8_" gradientUnits="userSpaceOnUse" x1="29.7525" y1="122.3615" x2="51.4477" y2="122.3615">
		<stop  offset="0" style="stop-color:#150E3C"/>
		<stop  offset="1" style="stop-color:#491E65"/>
	</linearGradient>
	<path class="st7" d="M48.7,120.5l2.7,1.6l-10.6,6.1l-2.7-1.6l3.7-2.1l-6.8-3.9c0,0.2,0,0.4-0.2,0.7c-0.2,0.3-0.3,0.6-0.6,0.9
		c-0.2,0.3-0.5,0.6-0.8,0.9c-0.3,0.3-0.6,0.6-1,0.7l-2.8-1.6c0.3-0.2,0.6-0.4,0.9-0.8c0.3-0.4,0.5-0.7,0.7-1.1
		c0.2-0.4,0.3-0.7,0.4-1.1c0.1-0.3,0.1-0.5,0.1-0.7l3.6-2.1l10,5.8L48.7,120.5z"/>
	<linearGradient id="SVGID_9_" gradientUnits="userSpaceOnUse" x1="50.0974" y1="109.6992" x2="69.3961" y2="109.6992">
		<stop  offset="0" style="stop-color:#150E3C"/>
		<stop  offset="1" style="stop-color:#491E65"/>
	</linearGradient>
	<path class="st8" d="M66.5,105.8c1,0.6,1.7,1.2,2.2,1.9c0.5,0.7,0.7,1.4,0.7,2c0,0.7-0.2,1.4-0.7,2c-0.5,0.7-1.2,1.3-2.2,1.8
		c-1,0.6-2,1-3.2,1.3c-1.2,0.3-2.3,0.4-3.5,0.4c-1.2,0-2.4-0.1-3.5-0.4c-1.2-0.3-2.2-0.7-3.2-1.3c-1-0.6-1.7-1.2-2.2-1.9
		c-0.5-0.7-0.7-1.4-0.7-2c0-0.7,0.2-1.4,0.7-2c0.5-0.7,1.2-1.3,2.2-1.8c1-0.5,2-1,3.2-1.2c1.2-0.3,2.3-0.4,3.5-0.4
		c1.2,0,2.4,0.1,3.5,0.4C64.4,104.8,65.5,105.3,66.5,105.8z M62.9,107.9c-0.6-0.3-1.2-0.6-1.9-0.8c-0.7-0.2-1.3-0.3-1.9-0.4
		c-0.6,0-1.3,0-1.8,0.1c-0.6,0.1-1.1,0.3-1.6,0.6c-0.5,0.3-0.8,0.6-1,0.9c-0.2,0.3-0.3,0.7-0.2,1.1c0.1,0.4,0.3,0.7,0.6,1.1
		c0.3,0.4,0.8,0.7,1.4,1.1c0.6,0.3,1.2,0.6,1.9,0.8c0.6,0.2,1.3,0.3,1.9,0.4c0.6,0,1.3,0,1.8-0.1c0.6-0.1,1.1-0.3,1.6-0.6
		c0.5-0.3,0.8-0.6,1-0.9c0.2-0.3,0.3-0.7,0.2-1.1c-0.1-0.4-0.3-0.7-0.6-1.1C64,108.6,63.5,108.2,62.9,107.9z"/>
	<linearGradient id="SVGID_10_" gradientUnits="userSpaceOnUse" x1="71.0207" y1="98.5353" x2="92.7159" y2="98.5353">
		<stop  offset="0" style="stop-color:#150E3C"/>
		<stop  offset="1" style="stop-color:#491E65"/>
	</linearGradient>
	<path class="st9" d="M90,96.7l2.7,1.6l-10.6,6.1l-2.7-1.6l3.7-2.1l-6.8-3.9c0,0.2,0,0.4-0.2,0.7c-0.2,0.3-0.3,0.6-0.6,0.9
		c-0.2,0.3-0.5,0.6-0.8,0.9c-0.3,0.3-0.6,0.6-1,0.7L71,98.5c0.3-0.2,0.6-0.4,0.9-0.8c0.3-0.4,0.5-0.7,0.7-1.1
		c0.2-0.4,0.3-0.7,0.4-1.1c0.1-0.3,0.1-0.5,0.1-0.7l3.6-2.1l10,5.8L90,96.7z"/>
	<linearGradient id="SVGID_11_" gradientUnits="userSpaceOnUse" x1="91.3656" y1="85.8733" x2="110.6642" y2="85.8733">
		<stop  offset="0" style="stop-color:#150E3C"/>
		<stop  offset="1" style="stop-color:#491E65"/>
	</linearGradient>
	<path class="st10" d="M107.7,82c1,0.6,1.7,1.2,2.2,1.9c0.5,0.7,0.7,1.4,0.7,2c0,0.7-0.2,1.4-0.7,2c-0.5,0.7-1.2,1.3-2.2,1.8
		c-1,0.6-2,1-3.2,1.3c-1.1,0.3-2.3,0.4-3.5,0.4c-1.2,0-2.4-0.1-3.5-0.4c-1.2-0.3-2.2-0.7-3.2-1.3c-1-0.6-1.7-1.2-2.2-1.9
		c-0.5-0.7-0.7-1.4-0.7-2c0-0.7,0.2-1.4,0.7-2c0.5-0.7,1.2-1.3,2.2-1.8c1-0.6,2-1,3.2-1.2c1.2-0.3,2.3-0.4,3.5-0.4
		c1.2,0,2.4,0.1,3.5,0.4C105.7,81,106.7,81.4,107.7,82z M104.2,84c-0.6-0.3-1.2-0.6-1.9-0.8c-0.7-0.2-1.3-0.3-1.9-0.4
		c-0.6,0-1.3,0-1.8,0.1c-0.6,0.1-1.1,0.3-1.6,0.6c-0.5,0.3-0.8,0.6-1,0.9c-0.2,0.3-0.3,0.7-0.2,1.1c0.1,0.4,0.3,0.7,0.6,1.1
		c0.3,0.4,0.8,0.7,1.4,1.1c0.6,0.3,1.2,0.6,1.9,0.8c0.6,0.2,1.3,0.3,1.9,0.4c0.6,0,1.3,0,1.8-0.1c0.6-0.1,1.1-0.3,1.6-0.6
		c0.5-0.3,0.8-0.6,1-0.9c0.2-0.3,0.3-0.7,0.2-1.1c-0.1-0.4-0.3-0.7-0.6-1.1C105.3,84.7,104.8,84.4,104.2,84z"/>
	<linearGradient id="SVGID_12_" gradientUnits="userSpaceOnUse" x1="112.2888" y1="74.7094" x2="133.984" y2="74.7094">
		<stop  offset="0" style="stop-color:#150E3C"/>
		<stop  offset="1" style="stop-color:#491E65"/>
	</linearGradient>
	<path class="st11" d="M131.3,72.8l2.7,1.6l-10.6,6.1l-2.7-1.6l3.7-2.1l-6.8-3.9c0,0.2,0,0.4-0.2,0.7c-0.2,0.3-0.3,0.6-0.6,0.9
		c-0.2,0.3-0.5,0.6-0.8,0.9c-0.3,0.3-0.6,0.6-1,0.7l-2.8-1.6c0.3-0.2,0.6-0.4,0.9-0.8c0.3-0.4,0.5-0.7,0.7-1.1
		c0.2-0.4,0.3-0.7,0.4-1.1c0.1-0.3,0.1-0.5,0.1-0.7l3.6-2.1l10,5.8L131.3,72.8z"/>
	<linearGradient id="SVGID_13_" gradientUnits="userSpaceOnUse" x1="131.3635" y1="63.6965" x2="153.0587" y2="63.6965">
		<stop  offset="0" style="stop-color:#150E3C"/>
		<stop  offset="1" style="stop-color:#491E65"/>
	</linearGradient>
	<path class="st12" d="M150.4,61.8l2.7,1.6l-10.6,6.1l-2.7-1.6l3.7-2.1l-6.8-3.9c0,0.2,0,0.4-0.2,0.7c-0.2,0.3-0.3,0.6-0.6,0.9
		c-0.2,0.3-0.5,0.6-0.8,0.9c-0.3,0.3-0.6,0.6-1,0.7l-2.8-1.6c0.3-0.2,0.6-0.4,0.9-0.8c0.3-0.4,0.5-0.7,0.7-1.1
		c0.2-0.4,0.3-0.7,0.4-1.1c0.1-0.3,0.1-0.5,0.1-0.7l3.6-2.1l10,5.8L150.4,61.8z"/>
	<linearGradient id="SVGID_14_" gradientUnits="userSpaceOnUse" x1="150.4382" y1="52.6839" x2="172.1334" y2="52.6839">
		<stop  offset="0" style="stop-color:#150E3C"/>
		<stop  offset="1" style="stop-color:#491E65"/>
	</linearGradient>
	<path class="st13" d="M169.4,50.8l2.7,1.6l-10.6,6.1l-2.7-1.6l3.7-2.1l-6.8-3.9c0,0.2,0,0.4-0.2,0.7c-0.2,0.3-0.3,0.6-0.6,0.9
		c-0.2,0.3-0.5,0.6-0.8,0.9c-0.3,0.3-0.6,0.6-1,0.7l-2.8-1.6c0.3-0.2,0.6-0.4,0.9-0.8c0.3-0.4,0.5-0.7,0.7-1.1
		c0.2-0.4,0.3-0.7,0.4-1.1c0.1-0.3,0.1-0.5,0.1-0.7l3.6-2.1l10,5.8L169.4,50.8z"/>
	<linearGradient id="SVGID_15_" gradientUnits="userSpaceOnUse" x1="56.5368" y1="137.8253" x2="78.232" y2="137.8253">
		<stop  offset="0" style="stop-color:#150E3C"/>
		<stop  offset="1" style="stop-color:#491E65"/>
	</linearGradient>
	<path class="st14" d="M75.5,135.9l2.7,1.6l-10.6,6.1L65,142l3.7-2.1l-6.8-3.9c0,0.2,0,0.4-0.2,0.7c-0.2,0.3-0.3,0.6-0.6,0.9
		c-0.2,0.3-0.5,0.6-0.8,0.9c-0.3,0.3-0.6,0.6-1,0.7l-2.8-1.6c0.3-0.2,0.6-0.4,0.9-0.8c0.3-0.4,0.5-0.7,0.7-1.1
		c0.2-0.4,0.3-0.7,0.4-1.1c0.1-0.3,0.1-0.5,0.1-0.7l3.6-2.1l10,5.8L75.5,135.9z"/>
	<linearGradient id="SVGID_16_" gradientUnits="userSpaceOnUse" x1="76.8811" y1="125.163" x2="96.1803" y2="125.163">
		<stop  offset="0" style="stop-color:#150E3C"/>
		<stop  offset="1" style="stop-color:#491E65"/>
	</linearGradient>
	<path class="st15" d="M93.2,121.3c1,0.6,1.7,1.2,2.2,1.9c0.5,0.7,0.7,1.4,0.7,2c0,0.7-0.2,1.4-0.7,2c-0.5,0.7-1.2,1.3-2.2,1.8
		c-1,0.6-2,1-3.2,1.3c-1.1,0.3-2.3,0.4-3.5,0.4c-1.2,0-2.4-0.1-3.5-0.4c-1.2-0.3-2.2-0.7-3.2-1.3c-1-0.6-1.7-1.2-2.2-1.9
		c-0.5-0.7-0.7-1.4-0.7-2c0-0.7,0.2-1.4,0.7-2c0.5-0.7,1.2-1.3,2.2-1.8c1-0.6,2-1,3.2-1.2c1.2-0.3,2.3-0.4,3.5-0.4
		c1.2,0,2.4,0.1,3.5,0.4C91.2,120.3,92.3,120.7,93.2,121.3z M89.7,123.3c-0.6-0.3-1.2-0.6-1.9-0.8c-0.7-0.2-1.3-0.3-1.9-0.4
		c-0.6,0-1.3,0-1.8,0.1c-0.6,0.1-1.1,0.3-1.6,0.6c-0.5,0.3-0.8,0.6-1,0.9c-0.2,0.3-0.3,0.7-0.2,1.1c0.1,0.4,0.3,0.7,0.6,1.1
		c0.3,0.4,0.8,0.7,1.4,1.1c0.6,0.3,1.2,0.6,1.9,0.8c0.6,0.2,1.3,0.3,1.9,0.4c0.6,0,1.3,0,1.8-0.1c0.6-0.1,1.1-0.3,1.6-0.6
		c0.5-0.3,0.8-0.6,1-0.9c0.2-0.3,0.3-0.7,0.2-1.1c-0.1-0.4-0.3-0.7-0.6-1.1C90.8,124,90.3,123.7,89.7,123.3z"/>
	<linearGradient id="SVGID_17_" gradientUnits="userSpaceOnUse" x1="97.8049" y1="113.9991" x2="119.5001" y2="113.9991">
		<stop  offset="0" style="stop-color:#150E3C"/>
		<stop  offset="1" style="stop-color:#491E65"/>
	</linearGradient>
	<path class="st16" d="M116.8,112.1l2.7,1.6l-10.6,6.1l-2.7-1.6l3.7-2.1l-6.8-3.9c0,0.2,0,0.4-0.2,0.7c-0.2,0.3-0.3,0.6-0.6,0.9
		c-0.2,0.3-0.5,0.6-0.8,0.9c-0.3,0.3-0.6,0.6-1,0.7l-2.8-1.6c0.3-0.2,0.6-0.4,0.9-0.8c0.3-0.4,0.5-0.7,0.7-1.1
		c0.2-0.4,0.3-0.7,0.4-1.1c0.1-0.3,0.1-0.5,0.1-0.7l3.6-2.1l10,5.8L116.8,112.1z"/>
	<linearGradient id="SVGID_18_" gradientUnits="userSpaceOnUse" x1="116.8796" y1="102.9864" x2="138.5748" y2="102.9864">
		<stop  offset="0" style="stop-color:#150E3C"/>
		<stop  offset="1" style="stop-color:#491E65"/>
	</linearGradient>
	<path class="st17" d="M135.9,101.1l2.7,1.6l-10.6,6.1l-2.7-1.6l3.7-2.1l-6.8-3.9c0,0.2,0,0.4-0.2,0.7c-0.2,0.3-0.3,0.6-0.6,0.9
		c-0.2,0.3-0.5,0.6-0.8,0.9c-0.3,0.3-0.6,0.6-1,0.7l-2.8-1.6c0.3-0.2,0.6-0.4,0.9-0.8c0.3-0.4,0.5-0.7,0.7-1.1
		c0.2-0.4,0.3-0.7,0.4-1.1c0.1-0.3,0.1-0.5,0.1-0.7l3.6-2.1l10,5.8L135.9,101.1z"/>
	<linearGradient id="SVGID_19_" gradientUnits="userSpaceOnUse" x1="135.9543" y1="91.9738" x2="157.6495" y2="91.9738">
		<stop  offset="0" style="stop-color:#150E3C"/>
		<stop  offset="1" style="stop-color:#491E65"/>
	</linearGradient>
	<path class="st18" d="M154.9,90.1l2.7,1.6l-10.6,6.1l-2.7-1.6l3.7-2.1l-6.8-3.9c0,0.2,0,0.4-0.2,0.7c-0.2,0.3-0.3,0.6-0.6,0.9
		c-0.2,0.3-0.5,0.6-0.8,0.9c-0.3,0.3-0.6,0.6-1,0.7l-2.8-1.6c0.3-0.2,0.6-0.4,0.9-0.8c0.3-0.4,0.5-0.7,0.7-1.1
		c0.2-0.4,0.3-0.7,0.4-1.1c0.1-0.3,0.1-0.5,0.1-0.7l3.6-2.1l10,5.8L154.9,90.1z"/>
	<linearGradient id="SVGID_20_" gradientUnits="userSpaceOnUse" x1="156.2986" y1="79.3115" x2="175.5979" y2="79.3115">
		<stop  offset="0" style="stop-color:#150E3C"/>
		<stop  offset="1" style="stop-color:#491E65"/>
	</linearGradient>
	<path class="st19" d="M172.7,75.4c1,0.6,1.7,1.2,2.2,1.9c0.5,0.7,0.7,1.4,0.7,2c0,0.7-0.2,1.4-0.7,2c-0.5,0.7-1.2,1.3-2.2,1.8
		c-1,0.6-2,1-3.2,1.3c-1.1,0.3-2.3,0.4-3.5,0.4c-1.2,0-2.4-0.1-3.5-0.4c-1.2-0.3-2.2-0.7-3.2-1.3c-1-0.6-1.7-1.2-2.2-1.9
		c-0.5-0.7-0.7-1.4-0.7-2c0-0.7,0.2-1.4,0.7-2c0.5-0.7,1.2-1.3,2.2-1.8c1-0.6,2-1,3.2-1.2c1.2-0.3,2.3-0.4,3.5-0.4
		c1.2,0,2.4,0.1,3.5,0.4C170.6,74.4,171.7,74.9,172.7,75.4z M169.1,77.5c-0.6-0.3-1.2-0.6-1.9-0.8c-0.7-0.2-1.3-0.3-1.9-0.4
		c-0.6,0-1.3,0-1.8,0.1c-0.6,0.1-1.1,0.3-1.6,0.6c-0.5,0.3-0.8,0.6-1,0.9c-0.2,0.3-0.3,0.7-0.2,1.1c0.1,0.4,0.3,0.7,0.6,1.1
		c0.3,0.4,0.8,0.7,1.4,1.1c0.6,0.3,1.2,0.6,1.9,0.8c0.6,0.2,1.3,0.3,1.9,0.4c0.6,0,1.3,0,1.8-0.1c0.6-0.1,1.1-0.3,1.6-0.6
		c0.5-0.3,0.8-0.6,1-0.9c0.2-0.3,0.3-0.7,0.2-1.1c-0.1-0.4-0.3-0.7-0.6-1.1C170.2,78.2,169.7,77.8,169.1,77.5z"/>
	<linearGradient id="SVGID_21_" gradientUnits="userSpaceOnUse" x1="178.492" y1="66.4979" x2="197.7913" y2="66.4979">
		<stop  offset="0" style="stop-color:#150E3C"/>
		<stop  offset="1" style="stop-color:#491E65"/>
	</linearGradient>
	<path class="st20" d="M194.8,62.6c1,0.6,1.7,1.2,2.2,1.9c0.5,0.7,0.7,1.4,0.7,2c0,0.7-0.2,1.4-0.7,2c-0.5,0.7-1.2,1.3-2.2,1.8
		c-1,0.6-2,1-3.2,1.3c-1.1,0.3-2.3,0.4-3.5,0.4c-1.2,0-2.4-0.1-3.5-0.4c-1.2-0.3-2.2-0.7-3.2-1.3c-1-0.6-1.7-1.2-2.2-1.9
		c-0.5-0.7-0.7-1.4-0.7-2c0-0.7,0.2-1.4,0.7-2c0.5-0.7,1.2-1.3,2.2-1.8c1-0.5,2-1,3.2-1.2c1.2-0.3,2.3-0.4,3.5-0.4
		c1.2,0,2.4,0.1,3.5,0.4C192.8,61.6,193.9,62.1,194.8,62.6z M191.3,64.7c-0.6-0.3-1.2-0.6-1.9-0.8c-0.7-0.2-1.3-0.3-1.9-0.4
		c-0.6,0-1.3,0-1.8,0.1c-0.6,0.1-1.1,0.3-1.6,0.6c-0.5,0.3-0.8,0.6-1,0.9c-0.2,0.3-0.3,0.7-0.2,1.1c0.1,0.4,0.3,0.7,0.6,1.1
		c0.3,0.4,0.8,0.7,1.4,1.1c0.6,0.3,1.2,0.6,1.9,0.8c0.6,0.2,1.3,0.3,1.9,0.4c0.6,0,1.3,0,1.8-0.1c0.6-0.1,1.1-0.3,1.6-0.6
		c0.5-0.3,0.8-0.6,1-0.9c0.2-0.3,0.3-0.7,0.2-1.1c-0.1-0.4-0.3-0.7-0.6-1.1C192.4,65.4,191.9,65,191.3,64.7z"/>
</g>
<g>
	<linearGradient id="SVGID_22_" gradientUnits="userSpaceOnUse" x1="120.3437" y1="148.1004" x2="253" y2="148.1004">
		<stop  offset="0" style="stop-color:#2D206D"/>
		<stop  offset="1" style="stop-color:#652C8A"/>
	</linearGradient>
	<path class="st21" d="M120.3,148.1C120.3,148.1,120.3,148.1,120.3,148.1v-24.8h15.8c1.2-0.8,2.4-1.5,3.6-2.3
		c25.9-15,67.9-15,93.8,0c1.3,0.7,2.5,1.5,3.6,2.3H253v26h0c-0.5,9.4-7,18.7-19.4,25.9c-25.9,15-67.9,15-93.8,0
		c-12.4-7.2-18.9-16.5-19.4-25.9h0V148.1z"/>
	<linearGradient id="SVGID_23_" gradientUnits="userSpaceOnUse" x1="120.3437" y1="123.3035" x2="253" y2="123.3035">
		<stop  offset="0" style="stop-color:#6F5EC2"/>
		<stop  offset="1" style="stop-color:#7D37A8"/>
	</linearGradient>
	<ellipse class="st22" cx="186.7" cy="123.3" rx="66.3" ry="38.3"/>
	<ellipse class="st23" cx="186.7" cy="123.3" rx="57.3" ry="33.1"/>
	<ellipse class="st24" cx="165.9" cy="105.3" rx="17.1" ry="5.1"/>
	<g>
		<linearGradient id="SVGID_24_" gradientUnits="userSpaceOnUse" x1="30.3243" y1="190.2502" x2="143.7786" y2="190.2502">
			<stop  offset="0" style="stop-color:#D12284"/>
			<stop  offset="1" style="stop-color:#EA63A5"/>
		</linearGradient>
		<path class="st25" d="M142.1,159c-1.1-1.8-2.6-3.4-4.3-4.3c-1.7-1-3.2-1.2-4.3-0.7c-0.2,0.1-0.4,0.2-0.5,0.3c0,0,0,0-0.1,0
			l-102.5,59v7.4c1.1,2.1,2.8,4,4.8,5.1c1.8,1,3.3,1.2,4.5,0.6l0.2-0.1l102.2-58.9v-0.1c0,0,0.1,0,0.1-0.1l0.2-0.1
			c0.9-0.6,1.4-1.6,1.4-3C143.8,162.6,143.1,160.7,142.1,159z"/>
		<path class="st26" d="M29.1,216.3c0,1.4,0.5,2.9,1.3,4.4c1.1,2.1,2.8,4,4.8,5.1c1.8,1,3.3,1.2,4.5,0.6l0.2-0.1
			c0.9-0.6,1.4-1.6,1.4-3c0-3.3-2.7-7.6-6.1-9.6c-2-1.1-3.7-1.2-4.8-0.4C29.5,213.9,29.1,214.9,29.1,216.3z"/>
		<path class="st27" d="M132.9,154.3l-102.5,59L132.9,154.3z"/>
		<linearGradient id="SVGID_25_" gradientUnits="userSpaceOnUse" x1="29.0704" y1="219.8035" x2="41.1889" y2="219.8035">
			<stop  offset="0" style="stop-color:#2D206D"/>
			<stop  offset="1" style="stop-color:#652C8A"/>
		</linearGradient>
		<path class="st28" d="M29.1,216.3c0,1.4,0.5,2.9,1.3,4.4c1.1,2.1,2.8,4,4.8,5.1c1.8,1,3.3,1.2,4.5,0.6l0.2-0.1
			c0.9-0.6,1.4-1.6,1.4-3c0-3.3-2.7-7.6-6.1-9.6c-2-1.1-3.7-1.2-4.8-0.4C29.5,213.9,29.1,214.9,29.1,216.3z"/>
	</g>
</g>
</svg>
