<svg version="1.1" id="page-not-found" xmlns="http://www.w3.org/2000/svg" xmlns:xlink="http://www.w3.org/1999/xlink" x="0" y="0" viewBox="0 0 512 512" xml:space="preserve"><style>.st6{fill:#f2f2f2}.st7{fill:#ddd}.st8{fill:#e8e8e8}.st9{fill:#575757}.st10{fill:#ccc}.st12{fill:#f6d365}</style><path id="XMLID_5_" opacity=".25" fill="#f6d365" d="M73.5 130.5l104.4-60.2-.1 156.1L74 286.5z"/><path id="XMLID_4_" opacity=".5" fill="#f6d365" d="M86.5 141.5l104.4-60.2-.1 156.1L87 297.5z"/><g id="XMLID_239_" transform="translate(65.196 76.72)" opacity=".1"><g id="XMLID_240_" transform="translate(.01 .155)"><g id="XMLID_241_"><path id="XMLID_242_" fill="#222" d="M-55.2 210.7L171.7 99.9l266.1 131.7-229.9 116.8z"/></g></g></g><g id="XMLID_196_" transform="translate(0 57.051)" fill="#565656"><path id="XMLID_198_" opacity=".1" d="M388.7 252.6l25.8-12.6 30.1 15.1-26 13.3z"/><path id="XMLID_197_" opacity=".4" d="M241 260.8l22.6-11.1 26.5 13.2-22.9 11.6z"/></g><path id="XMLID_446_" class="st6" d="M321.8 178.2l103.5-59.8.5 156-104 59.9z"/><path id="XMLID_216_" class="st7" d="M425.2 118.4l-10.2-6.1-104.1 60.2 10.1 5.7z"/><path id="XMLID_215_" class="st8" d="M321 178.2l-10.1-5.7.3 12 10.2 5.9z"/><path id="XMLID_440_" class="st9" d="M388.9 229.5v-48.2l-10.4 5.8-20.9 60v12.2l20.1-12.2v24.3l11.2-6v-24.1l10.1-6v-11.9l-10.1 6.1zm-11.2 5.9l-10.6 5.9 10.6-29.9v24z"/><path id="XMLID_208_" class="st6" d="M102.5 172.5l104.4-60.2-.1 156.1L103 328.5z"/><path id="XMLID_435_" class="st7" d="M206.9 112.3l-10.5-6-103.9 60 10 6.2 104.4-60.2"/><path id="XMLID_2_" class="st8" d="M92.5 166.3l10 6.2.5 156-10.5-6V166.3l10 6.2"/><path id="XMLID_430_" class="st9" d="M168.7 221.5v-48.2l-9.8 5.8-20.3 60v12.2l19-12.2v24.3l11.2-6v-24.1l11.2-6v-12l-11.3 6.2zm-11.2 5.9l-10.6 5.9 10.6-29.9v24z"/><path id="XMLID_1_" class="st6" d="M311.8 196.6l-114.6-66.2-.3 144L311.2 340z"/><path id="XMLID_425_" class="st8" d="M321.4 189.9l-.3 144.1-9.9 6-.3-144.2z"/><path id="XMLID_193_" class="st7" d="M207 124.3l-10.4 6.1 114.3 66 10.5-6z"/><path id="XMLID_422_" class="st10" d="M256.5 189.2c-11.1-6.4-21.1-6.8-28.2-2.4-1.1.7-9.7 5.3-10.6 6.3-4.7 4.7 0 8.3 0 18.2-.1 24.5 17.2 54.4 38.6 66.7 10.5 6 13.4 11.1 17 8.7.7-.5 11.3-6.8 11.9-7.3 6.1-4.4 9.8-12.1 9.8-23.5.1-24.5-17.1-54.4-38.5-66.7"/><path id="XMLID_421_" class="st9" d="M247.1 194.6c-21.4-12.3-38.7-2.5-38.8 22.1-.1 24.5 17.2 54.4 38.6 66.7s38.7 2.5 38.8-22.1c-.1-24.5-17.3-54.4-38.6-66.7"/><g id="XMLID_417_"><defs><path id="SVGID_1_" d="M231 244.4l.1-13.6 34.8 20.1-.1 13.8z"/></defs><clipPath id="SVGID_2_"><use xlink:href="#SVGID_1_" overflow="visible"/></clipPath><g id="XMLID_418_" clip-path="url(#SVGID_2_)"><path id="XMLID_419_" class="st12" d="M263.9 249.8c-.1 0-.2-.1-.3-.1l-31.3-9.5c-1-.3-1.6.6-1.3 2.1.2 1.3 1 2.8 1.9 3.2.1 0 .2.1.3.1l31.3 9.5c1 .3 1.6-.6 1.3-2.1-.1-1.3-1-2.6-1.9-3.2"/></g></g><g id="XMLID_413_"><defs><path id="SVGID_3_" d="M227.9 238.1l.2-41.6 13.5 7.8-.1 41.5z"/></defs><clipPath id="SVGID_4_"><use xlink:href="#SVGID_3_" overflow="visible"/></clipPath><g id="XMLID_414_" clip-path="url(#SVGID_4_)"><path id="XMLID_415_" class="st12" d="M229.6 197.4c-.1-.1-.3-.1-.4-.2-.9-.2-1.3.6-1 1.7l10.3 43.8c.2.9.9 1.8 1.6 2.1.1.1.3.1.4.2.9.2 1.3-.6 1-1.7l-10.3-43.8c-.3-.9-.9-1.8-1.6-2.1"/></g></g><path id="XMLID_412_" class="st10" d="M240 231.5c-2.6-1.4-5-1.6-6.6-.6-.2.1-2.2 1.2-2.5 1.4-1.1 1.1 0 2 0 4.3 0 5.8 4 12.9 9.1 15.8 2.5 1.4 3.1 2.6 4 2 .1-.1 2.7-1.7 2.8-1.7 1.4-1 2.4-2.9 2.4-5.6-.1-5.7-4.2-12.7-9.2-15.6"/><path id="XMLID_411_" d="M237.8 232.7c-5-2.9-9.2-.6-9.2 5.3s4 12.9 9.1 15.8c5 2.9 9.2.6 9.2-5.3-.1-5.7-4.1-12.9-9.1-15.8" fill="#383838"/><path class="st12" d="M209.2 151.9l-6-3.5v-6.9l6 3.4zM302.2 205.9l-6-3.5v-6.9l6 3.4zM213 170.9l-2.8-1.6V166l2.8 1.6zM294 223.9l-2.8-1.6V219l2.8 1.6zM217.9 268.9l-1.7-1v-2.1l1.7 1z"/></svg>