<?xml version="1.0" encoding="utf-8"?>
<!-- Generator: Adobe Illustrator 23.0.1, SVG Export Plug-In . SVG Version: 6.00 Build 0)  -->
<svg version="1.1" id="Layer_1" xmlns="http://www.w3.org/2000/svg" xmlns:xlink="http://www.w3.org/1999/xlink" x="0px" y="0px"
	 viewBox="0 0 256 256" style="enable-background:new 0 0 256 256;" xml:space="preserve">
<style type="text/css">
	.st0{fill:#453C9E;}
	.st1{fill:#24126A;}
	.st2{fill:#C83660;}
	.st3{fill:#FFFFFF;}
	.st4{opacity:0.2;}
</style>
<g>
	<g>
		<path class="st0" d="M218.1,103.5L137.5,17L57,10.5c0,0-12.9,109.2,80.6,225C231,227.7,218.1,103.5,218.1,103.5z"/>
		<polygon class="st1" points="57,10.5 38.8,21 119.4,27.5 137.5,17 		"/>
		<path class="st2" d="M200,114l-80.6-86.5l-33.1-3.3L38.8,21c0,0-12.9,109.2,80.6,225C212.9,238.1,200,114,200,114z"/>
		<path class="st3" d="M200,114l-80.6-86.5L38.8,21c2.3-1.3,2.3-1.3,2.3-1.3l81.6,6.6l80.6,86.5c0,0,10.8,103.8-58.8,127.6
			C210.4,214.4,200,114,200,114z"/>
	</g>
	<path class="st4" d="M190.2,115.3l-72.4-77.8l-29.8-3l-42.6-2.8c0,0-11.6,98.2,72.4,202.3C201.8,227,190.2,115.3,190.2,115.3z"/>
</g>
</svg>
