<?xml version="1.0" encoding="utf-8"?>
<!-- Generator: Adobe Illustrator 23.0.1, SVG Export Plug-In . SVG Version: 6.00 Build 0)  -->
<svg version="1.1" id="Layer_1" xmlns="http://www.w3.org/2000/svg" xmlns:xlink="http://www.w3.org/1999/xlink" x="0px" y="0px"
	 viewBox="0 0 256 256" style="enable-background:new 0 0 256 256;" xml:space="preserve">
<style type="text/css">
	.st0{fill:#453131;}
	.st1{fill:#FF4B5F;}
	.st2{fill:url(#SVGID_1_);}
	.st3{fill:#FFBC00;}
	.st4{fill:url(#SVGID_2_);}
	.st5{fill:url(#SVGID_3_);}
	.st6{fill:url(#SVGID_4_);}
	.st7{fill:url(#SVGID_5_);}
	.st8{fill:#FFFFFF;}
</style>
<g id="card">
	<path class="st0" d="M34.2,252.1l-6.3-3.6c-1.8-0.8-2.9-2.6-2.9-5.4V122.9c0-2.4,0.8-5.1,2.2-7.6l7,4.2c-1.3,2.5-2.2,5.1-2.2,7.5
		v120.2C32.1,249.5,32.9,251.2,34.2,252.1z"/>
	<path class="st1" d="M228.2,6.7c-1.8-0.9-4.4-0.6-7.3,1.1L42.1,111.1c-3.2,1.9-6.1,5-7.9,8.4l-7-4.2c1.9-3.3,4.7-6.4,7.8-8.3
		L213.9,3.8c3.2-1.8,6-2,7.8-0.8L228.2,6.7z"/>
	<linearGradient id="SVGID_1_" gradientUnits="userSpaceOnUse" x1="27.2458" y1="60.8638" x2="228.2426" y2="60.8638">
		<stop  offset="0" style="stop-color:#6F5EC2"/>
		<stop  offset="1" style="stop-color:#7D37A8"/>
	</linearGradient>
	<path class="st2" d="M228.2,6.7c-1.8-0.9-4.4-0.6-7.3,1.1L42.1,111.1c-3.2,1.9-6.1,5-7.9,8.4l-7-4.2c1.9-3.3,4.7-6.4,7.8-8.3
		L213.9,3.8c3.2-1.8,6-2,7.8-0.8L228.2,6.7z"/>
	<path class="st1" d="M231,11.5l-7,9.4v107.3c0,5.6-4.5,12.7-10.1,15.9L38.4,245.5l-0.3,7.5c-1.2,0.2-2.3,0-3.3-0.4l-0.7-0.4
		c-1.3-0.9-2.1-2.6-2.1-5V127c0-2.3,0.8-5,2.2-7.5c1.8-3.4,4.7-6.6,7.9-8.4L221,7.8c2.9-1.6,5.4-2,7.3-1.1l0.7,0.4c0,0,0,0,0,0
		C230.1,8,230.9,9.4,231,11.5z"/>
	<path class="st3" d="M231.1,12.1v120.2c0,5.6-4.5,12.7-10.1,15.9L42.1,251.4c-1.4,0.8-2.8,1.3-4,1.5c-1.2,0.2-2.3,0-3.3-0.4
		c-0.2-0.1-0.5-0.2-0.7-0.4c-1.3-0.9-2.1-2.6-2.1-5V127c0-2.3,0.8-5,2.2-7.5c1.8-3.4,4.7-6.6,7.9-8.4L221,7.8c2.9-1.6,5.4-2,7.3-1.1
		c0.2,0.1,0.5,0.2,0.7,0.4c0,0,0,0,0,0c1.2,0.9,2,2.3,2.1,4.4C231,11.7,231.1,11.9,231.1,12.1z"/>
	<linearGradient id="SVGID_2_" gradientUnits="userSpaceOnUse" x1="25" y1="183.7254" x2="34.2199" y2="183.7254">
		<stop  offset="0" style="stop-color:#4B39A9"/>
		<stop  offset="1" style="stop-color:#662292"/>
	</linearGradient>
	<path class="st4" d="M34.2,252.1l-6.3-3.6c-1.8-0.8-2.9-2.6-2.9-5.4V122.9c0-2.4,0.8-5.1,2.2-7.6l7,4.2c-1.3,2.5-2.2,5.1-2.2,7.5
		v120.2C32.1,249.5,32.9,251.2,34.2,252.1z"/>
	<linearGradient id="SVGID_3_" gradientUnits="userSpaceOnUse" x1="32.068" y1="129.6204" x2="231.0524" y2="129.6204">
		<stop  offset="0" style="stop-color:#2D206D"/>
		<stop  offset="1" style="stop-color:#652C8A"/>
	</linearGradient>
	<path class="st5" d="M231.1,12.1v120.2c0,5.6-4.5,12.7-10.1,15.9L42.1,251.4c-1.4,0.8-2.8,1.3-4,1.5c-1.2,0.2-2.3,0-3.3-0.4
		c-0.2-0.1-0.5-0.2-0.7-0.4c-1.3-0.9-2.1-2.6-2.1-5V127c0-2.3,0.8-5,2.2-7.5c1.8-3.4,4.7-6.6,7.9-8.4L221,7.8c2.9-1.6,5.4-2,7.3-1.1
		c0.2,0.1,0.5,0.2,0.7,0.4c0,0,0,0,0,0c1.2,0.9,2,2.3,2.1,4.4C231,11.7,231.1,11.9,231.1,12.1z"/>
	<linearGradient id="SVGID_4_" gradientUnits="userSpaceOnUse" x1="49.3848" y1="133.4407" x2="88.4615" y2="133.4407">
		<stop  offset="0" style="stop-color:#D12284"/>
		<stop  offset="1" style="stop-color:#EA63A5"/>
	</linearGradient>
	<path class="st6" d="M85.8,141.6l-32.3,18.6c-1.9,1.1-4.2-0.3-4.2-2.4v-26.6c0-2.7,1.4-5.2,3.8-6.5l31.4-18.1
		c1.7-1,3.9,0.3,3.9,2.3v28.2C88.5,138.9,87.5,140.7,85.8,141.6z"/>
	<linearGradient id="SVGID_5_" gradientUnits="userSpaceOnUse" x1="53.6536" y1="133.4407" x2="84.1927" y2="133.4407">
		<stop  offset="0" style="stop-color:#FFAC13"/>
		<stop  offset="1" style="stop-color:#FFE200"/>
	</linearGradient>
	<path class="st7" d="M82.1,139.8l-25.2,14.6c-1.5,0.8-3.3-0.2-3.3-1.9v-20.8c0-2.1,1.1-4,2.9-5.1l24.5-14.2
		c1.4-0.8,3.1,0.2,3.1,1.8v22C84.2,137.7,83.4,139.1,82.1,139.8z"/>
	<g>
		<path class="st8" d="M83.5,172.1l-25.2,14.6c-0.9,0.5-2.1-0.1-2.1-1.2v-7.1c0-0.5,0.3-1,0.7-1.2l25.2-14.6
			c0.9-0.5,2.1,0.1,2.1,1.2v7.1C84.2,171.4,83.9,171.8,83.5,172.1z"/>
		<path class="st8" d="M125.9,147.6l-25.2,14.6c-0.9,0.5-2.1-0.1-2.1-1.2v-7.1c0-0.5,0.3-1,0.7-1.2l25.2-14.6
			c0.9-0.5,2.1,0.1,2.1,1.2v7.1C126.6,146.9,126.3,147.3,125.9,147.6z"/>
		<path class="st8" d="M168.3,123.1l-25.2,14.6c-0.9,0.5-2.1-0.1-2.1-1.2v-7.1c0-0.5,0.3-1,0.7-1.2l25.2-14.6
			c0.9-0.5,2.1,0.1,2.1,1.2v7.1C169,122.4,168.7,122.9,168.3,123.1z"/>
		<path class="st8" d="M210.7,98.6l-25.2,14.6c-0.9,0.5-2.1-0.1-2.1-1.2v-7.1c0-0.5,0.3-1,0.7-1.2l25.2-14.6
			c0.9-0.5,2.1,0.1,2.1,1.2v7.1C211.4,97.9,211.1,98.4,210.7,98.6z"/>
	</g>
	<path class="st8" d="M84.9,209l-23.7,13.7c-1,0.6-2.2-0.1-2.2-1.3v-7.9c0-0.5,0.3-1,0.7-1.3l23.7-13.7c1-0.6,2.2,0.1,2.2,1.3v7.9
		C85.7,208.2,85.4,208.7,84.9,209z"/>
	<path class="st8" d="M124.9,186.1l-23.7,13.7c-1,0.6-2.2-0.1-2.2-1.3v-7.9c0-0.5,0.3-1,0.7-1.3l23.7-13.7c1-0.6,2.2,0.1,2.2,1.3
		v7.9C125.6,185.4,125.3,185.9,124.9,186.1z"/>
	<path class="st8" d="M203.2,63.8l-60.1,34.7c-0.6,0.3-1.3-0.1-1.3-0.8v-8.2c0-0.3,0.2-0.6,0.4-0.8L202.3,54
		c0.6-0.3,1.3,0.1,1.3,0.8V63C203.6,63.3,203.5,63.6,203.2,63.8z"/>
</g>
</svg>
