<svg version="1.1" id="authentication" xmlns="http://www.w3.org/2000/svg" x="0" y="0" viewBox="0 0 640 480" xml:space="preserve"><style>.st0,.st1,.st2{opacity:.4;fill:#565656;enable-background:new}.st1,.st2{opacity:.3}.st2{opacity:.1}</style><g id="XMLID_196_" transform="translate(0 57.051)"><path id="XMLID_204_" class="st0" d="M4 123.3l24.2-11.7 28.4 13.9-24.5 12.4z"/><path id="XMLID_203_" class="st0" d="M580.3 225.7l25.8-12.5 30.4 14.9-26.2 13.2z"/><path id="XMLID_202_" class="st1" d="M502.9 113.7l19.4-9.5 22.8 11.3-19.7 10z"/><path id="XMLID_201_" class="st1" d="M409.6 68.4l19.5-9.5 22.7 11.3-19.6 10.1z"/><path id="XMLID_200_" class="st2" d="M61.1 285.8l36.1-17.7 42.3 21.1-36.6 18.6z"/><path id="XMLID_199_" class="st0" d="M261.6 361.2l26.3-12.9 30.8 15.3-26.6 13.6z"/><path id="XMLID_198_" class="st2" d="M430.8 228.2l23.1-11.3 27 13.5-23.3 11.9z"/><path id="XMLID_197_" class="st0" d="M298.7 235.5l20.2-9.9 23.7 11.8-20.5 10.4z"/></g><path id="XMLID_2_" class="st2" d="M162.8 213.3l23.1-11.3 27 13.4-23.3 11.9z"/><path id="XMLID_1_" class="st0" d="M217.7 64.6l20.2-9.9 23.7 11.7-20.5 10.5z"/></svg>