<?xml version="1.0" encoding="utf-8"?>
<!-- Generator: Adobe Illustrator 23.0.1, SVG Export Plug-In . SVG Version: 6.00 Build 0)  -->
<svg id="network-lines" version="1.1" xmlns="http://www.w3.org/2000/svg" xmlns:xlink="http://www.w3.org/1999/xlink" x="0px" y="0px"
	 viewBox="0 0 512 512" style="enable-background:new 0 0 512 512;" xml:space="preserve">
<style type="text/css">
	.st10{fill:none;stroke:#ffffff;stroke-miterlimit:10;}
	.st11{fill:#ffffff;stroke:none;}
</style>
<g id="chip">
	<line class="st10" x1="271.2" y1="262.6" x2="343.6" y2="220.9"/>
	<line class="st10" x1="414.7" y1="262.6" x2="343.6" y2="220.9"/>
	<line class="st10" x1="343.6" y1="304.6" x2="414.7" y2="262.6"/>
	<line class="st10" x1="271.2" y1="262.6" x2="345.1" y2="303.7"/>
</g>
<g  id="line1-1">
	<line class="st10" x1="184.8" y1="123.4" x2="220.4" y2="144.1"/>
	<line class="st10" x1="220.5" y1="178" x2="220.4" y2="144.1"/>
	<line class="st10" x1="319.6" y1="234.9" x2="220.5" y2="178"/>
	<path class="st11" d="M187.5,123.5c0,0.9-1.4,1.6-2.7,1.6s-2.7-0.7-2.7-1.6c0-0.9,1.4-1.6,2.7-1.6S187.5,122.6,187.5,123.5z"/>
</g>
<g id="line1-2">
	<line class="st10" x1="307.7" y1="241.7" x2="210.1" y2="185.4"/>
	<line class="st10" x1="151.9" y1="185.9" x2="210.1" y2="185.4"/>
	<line class="st10" x1="115" y1="164.6" x2="151.9" y2="185.9"/>
	<line class="st10" x1="115.1" y1="130.7" x2="115" y2="164.6"/>
	<line class="st10" x1="194.1" y1="235.9" x2="225.9" y2="217.3"/>
	<line class="st10" x1="247.8" y1="217.3" x2="225.9" y2="217.3"/>
	<line class="st10" x1="275.6" y1="234.1" x2="247.8" y2="217.3"/>
	<line class="st10" x1="293.2" y1="233.3" x2="275.6" y2="234.1"/>
	<path class="st11" d="M117.8,130.5c0,0.9-1.4,1.6-2.7,1.6s-2.7-0.7-2.7-1.6c0-0.9,1.4-1.6,2.7-1.6S117.8,129.7,117.8,130.5z"/>
	<path class="st11" d="M196.8,235.9c0,0.9-1.4,1.6-2.7,1.6s-2.7-0.7-2.7-1.6c0-0.9,1.4-1.6,2.7-1.6S196.8,235,196.8,235.9z"/>
</g>
<g id="line1-3">
	<line class="st10" x1="276.9" y1="259.3" x2="245.6" y2="241.2"/>
	<line class="st10" x1="235.1" y1="241.2" x2="245.6" y2="241.2"/>
	<line class="st10" x1="220.1" y1="249.4" x2="235.1" y2="241.2"/>
	<line class="st10" x1="245.6" y1="227.9" x2="269.1" y2="241.5"/>
	<line class="st10" x1="268.7" y1="254.6" x2="269.1" y2="241.5"/>
	<path class="st11" d="M248.3,227.9c0,0.9-1.4,1.6-2.7,1.6s-2.7-0.7-2.7-1.6s1.4-1.6,2.7-1.6S248.3,227,248.3,227.9z"/>
	<path class="st11" d="M223.1,249.2c0,0.9-1.4,1.6-2.7,1.6s-2.7-0.7-2.7-1.6c0-0.9,1.4-1.6,2.7-1.6S223.1,248.4,223.1,249.2z"/>
</g>
<g id="line1-4">
	<line class="st10" x1="331.7" y1="227.8" x2="273.8" y2="194.4"/>
	<line class="st10" x1="273.8" y1="165.9" x2="273.8" y2="194.4"/>
	<line class="st10" x1="374.6" y1="107" x2="273.8" y2="165.9"/>
	<line class="st10" x1="291.9" y1="173.7" x2="291.5" y2="190.2"/>
	<line class="st10" x1="320.3" y1="206.8" x2="291.7" y2="189.7"/>
	<line class="st10" x1="320.8" y1="221.5" x2="320.3" y2="206.8"/>
	<path class="st11" d="M294.4,173.8c0,0.9-1.4,1.6-2.7,1.6c-1.3,0-2.7-0.7-2.7-1.6c0-0.9,1.4-1.6,2.7-1.6C293,172.3,294.4,173,294.4,173.8z"/>
	<path class="st11" d="M377.3,107.4c0,0.9-1.4,1.6-2.7,1.6s-2.7-0.7-2.7-1.6c0-0.9,1.4-1.6,2.7-1.6S377.3,106.5,377.3,107.4z"/>
	<line class="st10" x1="299.8" y1="150.7" x2="322.3" y2="151.3"/>
	<line class="st10" x1="363.5" y1="127" x2="322.3" y2="151.3"/>
	<path class="st11" d="M366.2,127c0,0.9-1.4,1.6-2.7,1.6s-2.7-0.7-2.7-1.6c0-0.9,1.4-1.6,2.7-1.6S366.2,126.1,366.2,127z"/>
</g>
<g id="line2-1">
	<line class="st10" x1="351.6" y1="225.3" x2="351.3" y2="193"/>
	<line class="st10" x1="324.1" y1="177.5" x2="351.3" y2="193"/>
	<line class="st10" x1="327.7" y1="157.4" x2="371.1" y2="182.5"/>
	<line class="st10" x1="370.7" y1="195.3" x2="371.1" y2="182.5"/>
	<line class="st10" x1="351.4" y1="206.3" x2="370.7" y2="195.3"/>
	<path class="st11" d="M330.5,157.7c0,0.9-1.4,1.6-2.7,1.6s-2.7-0.7-2.7-1.6c0-0.9,1.4-1.6,2.7-1.6S330.5,156.9,330.5,157.7z"/>
	<path class="st11" d="M326.8,177.4c0,0.9-1.4,1.6-2.7,1.6c-1.3,0-2.7-0.7-2.7-1.6c0-0.9,1.4-1.6,2.7-1.6C325.3,175.8,326.8,176.5,326.8,177.4z"
		/>
</g>
<g id="line2-2">
	<line class="st10" x1="361.9" y1="231.3" x2="400" y2="209.3"/>
	<line class="st10" x1="400.4" y1="183.7" x2="400" y2="209.3"/>
	<line class="st10" x1="357" y1="158.7" x2="400.4" y2="183.7"/>
	<line class="st10" x1="357" y1="150" x2="357" y2="158.7"/>
	<line class="st10" x1="383.2" y1="134.2" x2="357" y2="150"/>
	<line class="st10" x1="370.8" y1="226.1" x2="370.9" y2="215.1"/>
	<line class="st10" x1="386" y1="206.2" x2="370.9" y2="215.1"/>
	<path class="st11" d="M388.7,206.5c0,0.9-1.4,1.6-2.7,1.6s-2.7-0.7-2.7-1.6c0-0.9,1.4-1.6,2.7-1.6S388.7,205.6,388.7,206.5z"/>
	<path class="st11" d="M385.8,134.6c0,0.9-1.4,1.6-2.7,1.6s-2.7-0.7-2.7-1.6c0-0.9,1.4-1.6,2.7-1.6S385.8,133.7,385.8,134.6z"/>
</g>
<g id="line2-3">
	<line class="st10" x1="370.7" y1="236.5" x2="419.6" y2="207.5"/>
	<line class="st10" x1="419.6" y1="160.5" x2="419.6" y2="207.5"/>
	<line class="st10" x1="512" y1="107.2" x2="419.6" y2="160.5"/>
	<line class="st10" x1="434.7" y1="109.4" x2="434.7" y2="151.8"/>
	<line class="st10" x1="495.6" y1="73.7" x2="434.7" y2="109.4"/>
	<path class="st11" d="M498.7,74.1c0,0.9-1.4,1.6-2.7,1.6s-2.7-0.7-2.7-1.6c0-0.9,1.4-1.6,2.7-1.6S498.7,73.3,498.7,74.1z"/>
</g>
<g id="line2-4">
	<line class="st10" x1="380" y1="241.9" x2="473.4" y2="187"/>
	<line class="st10" x1="473.4" y1="181.2" x2="473.4" y2="187"/>
	<line class="st10" x1="497.6" y1="167.4" x2="473.4" y2="181.2"/>
	<line class="st10" x1="482.7" y1="159.2" x2="483.1" y2="175.7"/>
	<line class="st10" x1="512" y1="142.3" x2="482.7" y2="159.2"/>
	<line class="st10" x1="428.3" y1="213.5" x2="512" y2="213.6"/>
	<line class="st10" x1="512" y1="177.6" x2="450.9" y2="213.5"/>
	<path class="st11" d="M500.1,167.6c0,0.9-1.4,1.6-2.7,1.6s-2.7-0.7-2.7-1.6s1.4-1.6,2.7-1.6S500.1,166.7,500.1,167.6z"/>
</g>
<g id="line2-5">
	<line class="st10" x1="389.7" y1="247.4" x2="423.9" y2="227"/>
	<line class="st10" x1="512" y1="227" x2="423.9" y2="227"/>
	<line class="st10" x1="468.4" y1="239.1" x2="448.8" y2="227"/>
	<line class="st10" x1="512" y1="238.5" x2="468.4" y2="239.1"/>
</g>
<g id="line2-6">
	<line class="st10" x1="398.4" y1="252.4" x2="428.4" y2="235"/>
	<line class="st10" x1="440.3" y1="235" x2="428.4" y2="235"/>
	<line class="st10" x1="465.2" y1="249.4" x2="440.3" y2="235"/>
	<line class="st10" x1="512" y1="249.4" x2="465.2" y2="249.4"/>
	<line class="st10" x1="417.6" y1="248.4" x2="407" y2="247.4"/>
	<line class="st10" x1="428.4" y1="242.2" x2="417.6" y2="248.4"/>
	<line class="st10" x1="436.4" y1="242.2" x2="428.4" y2="242.2"/>
	<line class="st10" x1="456.9" y1="253.6" x2="436.4" y2="242.2"/>
	<path class="st11" d="M459.3,253.4c0,0.9-1.4,1.6-2.7,1.6s-2.7-0.7-2.7-1.6c0-0.9,1.4-1.6,2.7-1.6S459.3,252.6,459.3,253.4z"/>
</g>
<g id="line2-7">
	<line class="st10" x1="426" y1="259.6" x2="409.6" y2="258.9"/>
	<line class="st10" x1="448.7" y1="272.3" x2="426" y2="259.6"/>
	<path class="st11" d="M451.1,272.1c0,0.9-1.4,1.6-2.7,1.6s-2.7-0.7-2.7-1.6c0-0.9,1.4-1.6,2.7-1.6S451.1,271.2,451.1,272.1z"/>
</g>
<g id="line3-1">
	<line class="st10" x1="407" y1="267.8" x2="440.1" y2="286.1"/>
	<line class="st10" x1="493" y1="286.1" x2="440.1" y2="286.1"/>
	<line class="st10" x1="511.9" y1="297" x2="493" y2="286.1"/>
	<line class="st10" x1="511.9" y1="294" x2="507.3" y2="294.3"/>
	<line class="st10" x1="453.5" y1="280.8" x2="430.3" y2="280.7"/>
	<line class="st10" x1="480.5" y1="264.9" x2="453.5" y2="280.8"/>
	<line class="st10" x1="512" y1="273.7" x2="465.5" y2="273.8"/>
	<path class="st11" d="M482.9,265.1c0,0.9-1.4,1.6-2.7,1.6s-2.7-0.7-2.7-1.6c0-0.9,1.4-1.6,2.7-1.6S482.9,264.3,482.9,265.1z"/>
</g>
<g id="line3-2">
	<line class="st10" x1="391.1" y1="277" x2="481.7" y2="328.6"/>
	<line class="st10" x1="481.1" y1="352.4" x2="481.7" y2="328.6"/>
	<line class="st10" x1="511.9" y1="370.2" x2="481.1" y2="352.4"/>
	<line class="st10" x1="511.9" y1="323" x2="471.2" y2="298.8"/>
	<line class="st10" x1="429.9" y1="299.1" x2="471.2" y2="298.8"/>
</g>
<g id="line3-3">
	<line class="st10" x1="377.4" y1="284.6" x2="432" y2="315.8"/>
	<line class="st10" x1="432" y1="362.8" x2="432" y2="315.8"/>
	<line class="st10" x1="462.6" y1="380.1" x2="432" y2="362.8"/>
</g>
<g id="line3-4">
	<line class="st10" x1="368.6" y1="289.6" x2="408.7" y2="312.7"/>
	<line class="st10" x1="409.3" y1="367.5" x2="408.7" y2="312.7"/>
	<line class="st10" x1="428" y1="378.9" x2="409.3" y2="367.5"/>
</g>
<g id="line3-5">
	<line class="st10" x1="357.6" y1="296" x2="388.3" y2="313.7"/>
	<line class="st10" x1="388.3" y1="380.1" x2="388.3" y2="313.7"/>
	<line class="st10" x1="365" y1="346.9" x2="387.7" y2="334.9"/>
	<line class="st10" x1="372.3" y1="360.7" x2="387.7" y2="351.2"/>
	<line class="st10" x1="372.3" y1="380.1" x2="372.3" y2="360.7"/>
	<path class="st11" d="M368,347.5c0,0.9-1.4,1.6-2.7,1.6s-2.7-0.7-2.7-1.6c0-0.9,1.4-1.6,2.7-1.6S368,346.6,368,347.5z"/>
</g>
<g id="line3-6">
	<line class="st10" x1="347.3" y1="302.2" x2="362.2" y2="310.8"/>
	<line class="st10" x1="361.5" y1="323.5" x2="362.2" y2="310.8"/>
	<line class="st10" x1="310.1" y1="353.3" x2="361.5" y2="323.5"/>
	<line class="st10" x1="329.8" y1="330.6" x2="348.8" y2="330.9"/>
	<line class="st10" x1="306.9" y1="344.2" x2="329.8" y2="330.6"/>
	<line class="st10" x1="307.2" y1="372" x2="330.8" y2="358.6"/>
	<line class="st10" x1="331.5" y1="347.7" x2="330.8" y2="358.6"/>
	<line class="st10" x1="331.5" y1="347.7" x2="358.4" y2="332.2"/>
	<line class="st10" x1="358.2" y1="325.4" x2="358.4" y2="332.2"/>
	<path class="st11" d="M309.7,344.1c0,0.9-1.4,1.6-2.7,1.6s-2.7-0.7-2.7-1.6c0-0.9,1.4-1.6,2.7-1.6S309.7,343.3,309.7,344.1z"/>
	<path class="st11" d="M313,353.2c0,0.9-1.4,1.6-2.7,1.6s-2.7-0.7-2.7-1.6c0-0.9,1.4-1.6,2.7-1.6S313,352.3,313,353.2z"/>
	<path class="st11" d="M309.7,372.2c0,0.9-1.4,1.6-2.7,1.6s-2.7-0.7-2.7-1.6c0-0.9,1.4-1.6,2.7-1.6S309.7,371.3,309.7,372.2z"/>
</g>
<g id="line4-1">
	<line class="st10" x1="339.8" y1="302.4" x2="277.2" y2="338.5"/>
	<line class="st10" x1="257.1" y1="337.9" x2="277.2" y2="338.5"/>
	<path class="st11" d="M260.1,337.9c0,0.9-1.4,1.6-2.7,1.6c-1.3,0-2.7-0.7-2.7-1.6c0-0.9,1.4-1.6,2.7-1.6C258.7,336.4,260.1,337.1,260.1,337.9z"
		/>
</g>
<g id="line4-2">
	<line class="st10" x1="329.1" y1="296.1" x2="275.5" y2="327.8"/>
	<path class="st11" d="M278.6,327.6c0,0.9-1.4,1.6-2.7,1.6s-2.7-0.7-2.7-1.6c0-0.9,1.4-1.6,2.7-1.6S278.6,326.7,278.6,327.6z"/>
</g>
<g id="line4-3">
	<line class="st10" x1="319.2" y1="290.4" x2="245.7" y2="332.8"/>
	<line class="st10" x1="245.7" y1="368.3" x2="245.7" y2="332.8"/>
	<line class="st10" x1="266.9" y1="380.5" x2="245.7" y2="368.3"/>
	<line class="st10" x1="240.5" y1="380.5" x2="252.8" y2="372.4"/>
	<line class="st10" x1="206.6" y1="380.6" x2="232.8" y2="365.4"/>
	<line class="st10" x1="232.1" y1="347.6" x2="232.8" y2="365.4"/>
	<line class="st10" x1="245.1" y1="340.1" x2="232.1" y2="347.6"/>
	<path class="st11" d="M207.9,380.2c0,0.9-1.4,1.6-2.7,1.6s-2.7-0.7-2.7-1.6c0-0.9,1.4-1.6,2.7-1.6S207.9,379.4,207.9,380.2z"/>
</g>
<g id="line4-4">
	<line class="st10" x1="307.2" y1="283.4" x2="165.3" y2="366.1"/>
	<line class="st10" x1="164.7" y1="380.6" x2="165.3" y2="366.1"/>
</g>
<g id="line4-5">
	<line class="st10" x1="297.8" y1="278.1" x2="225" y2="320.7"/>
	<line class="st10" x1="171.2" y1="320.3" x2="225" y2="320.7"/>
	<line class="st10" x1="106.7" y1="357.6" x2="171.2" y2="320.3"/>
	<line class="st10" x1="0" y1="347.4" x2="17.3" y2="357.6"/>
	<line class="st10" x1="106.7" y1="357.6" x2="17.3" y2="357.6"/>
	<line class="st10" x1="118.9" y1="365.2" x2="148" y2="348.8"/>
	<line class="st10" x1="147.7" y1="333.9" x2="148" y2="348.8"/>
	<path class="st11" d="M121.8,365.1c0,0.9-1.4,1.6-2.7,1.6s-2.7-0.7-2.7-1.6c0-0.9,1.4-1.6,2.7-1.6S121.8,364.2,121.8,365.1z"/>
</g>
<g id="line4-6">
	<line class="st0" x1="290.1" y1="273.6" x2="220.6" y2="313.7"/>
	<line class="st10" x1="158.9" y1="313" x2="220.6" y2="313.7"/>
	<line class="st10" x1="127" y1="331.9" x2="158.9" y2="313"/>
	<line class="st10" x1="148" y1="274.5" x2="170.3" y2="261.6"/>
	<line class="st10" x1="207.1" y1="261.6" x2="170.3" y2="261.6"/>
	<line class="st10" x1="258.1" y1="291.1" x2="207.1" y2="261.6"/>
	<line class="st10" x1="210.6" y1="274.3" x2="229.4" y2="284.9"/>
	<line class="st10" x1="247.4" y1="284.9" x2="229.4" y2="284.9"/>
	<line class="st10" x1="82" y1="268.1" x2="148.8" y2="306.5"/>
	<line class="st10" x1="231.6" y1="306.5" x2="148.8" y2="306.5"/>
	<line class="st10" x1="267.8" y1="278.6" x2="282.5" y2="278"/>
	<line class="st10" x1="256" y1="271.5" x2="267.8" y2="278.6"/>
	<path class="st11" d="M129.6,331.9c0,0.9-1.4,1.6-2.7,1.6s-2.7-0.7-2.7-1.6s1.4-1.6,2.7-1.6S129.6,331.1,129.6,331.9z"/>
	<path class="st11" d="M84.7,268.1c0,0.9-1.4,1.6-2.7,1.6s-2.7-0.7-2.7-1.6c0-0.9,1.4-1.6,2.7-1.6S84.7,267.2,84.7,268.1z"/>
	<path class="st11" d="M150.8,274.5c0,0.9-1.4,1.6-2.7,1.6s-2.7-0.7-2.7-1.6c0-0.9,1.4-1.6,2.7-1.6S150.8,273.6,150.8,274.5z"/>
	<path class="st11" d="M213.3,274.3c0,0.9-1.4,1.6-2.7,1.6s-2.7-0.7-2.7-1.6s1.4-1.6,2.7-1.6S213.3,273.4,213.3,274.3z"/>
	<path class="st11" d="M259.6,272c0,0.9-1.4,1.6-2.7,1.6c-1.3,0-2.7-0.7-2.7-1.6c0-0.9,1.4-1.6,2.7-1.6C258.2,270.4,259.6,271.1,259.6,272z"/>
</g>
</svg>
